<svg width="80" height="80" viewBox="0 0 80 80" fill="none" xmlns="http://www.w3.org/2000/svg">
<path d="M2.51462 0.184547C1.69726 0.474449 0.462889 1.86958 0.212679 2.77551C-0.070893 3.86262 -0.070893 43.8684 0.212679 44.9555C0.47957 45.9339 1.71394 47.2747 2.6147 47.5646C3.1318 47.7277 6.00088 47.782 13.7741 47.782H24.2329L24.1161 48.2712C23.7158 50.0287 22.2312 52.0037 20.6966 52.8552C19.4122 53.5618 18.2112 53.7612 15.3254 53.7612C12.9067 53.7612 12.8233 53.7793 12.4396 54.2141C12.0226 54.649 12.0226 54.6852 12.0226 57.9647C12.0393 61.4253 12.0727 61.6427 12.8066 62.0595C13.0735 62.2225 17.1269 62.2769 28.353 62.2769H43.5324L43.5825 67.5675C43.6325 72.7313 43.6492 72.8944 44.0162 73.6735C46.0012 77.6958 54.1914 80.3592 63.3992 79.9606C70.3884 79.6707 75.9597 77.9313 78.4952 75.2498C80.1466 73.4923 79.9965 75.431 79.9965 55.7542C79.9965 38.9402 79.9798 38.4328 79.6628 37.7262C78.8788 35.9868 76.5102 34.2293 73.4409 33.1241C70.6052 32.0914 65.4342 31.2941 61.6977 31.2941H60.3966V17.8139C60.3966 9.46126 60.3299 3.97133 60.2298 3.37342C60.013 2.14136 59.3791 1.14484 58.4116 0.528801L57.6443 0.0396042L30.3714 0.00336456C10.7048 -0.0147552 2.93163 0.0396042 2.51462 0.184547ZM57.4775 3.11976L57.8945 3.5546V17.5059V31.4572L57.3607 31.5478C52.8236 32.2725 51.2556 32.6711 48.9203 33.6495C47.1855 34.3743 45.8344 35.3346 44.7668 36.6029L43.8994 37.6356H23.2154H2.51462V20.5679V3.50024L2.88159 3.08352L3.23188 2.66679H30.1545H57.0772L57.4775 3.11976ZM68.4868 34.5374C71.189 35.0628 73.2241 35.7151 74.8254 36.5666C78.0782 38.306 78.4618 40.0273 76.0264 41.8029C73.2241 43.8503 67.8529 45.0642 61.7311 45.0642C54.942 45.0461 49.1705 43.506 46.8519 41.0782C46.1847 40.3715 46.0512 40.136 46.0512 39.5743C46.0512 37.3457 51.0388 34.9722 57.3274 34.1931C58.0613 34.1025 60.4133 34.0663 62.5651 34.1025C65.6511 34.1387 66.9021 34.2293 68.4868 34.5374ZM43.5491 42.7088V45.0642H23.4155H3.28193L2.89827 44.6656C2.54798 44.3033 2.51462 44.1221 2.51462 42.3102V40.3534H23.0319H43.5491V42.7088ZM49.0871 45.5353C54.4583 47.7639 62.3483 48.3618 69.3041 47.0573C72.4234 46.4775 74.2249 45.8071 77.461 44.0134C77.5277 43.9771 77.5778 45.5353 77.5778 47.474C77.5778 51.0071 77.5778 51.0252 77.1441 51.5688C75.843 53.2538 71.923 54.812 67.2357 55.5005C64.45 55.9173 59.1956 55.9173 56.46 55.5187C51.4725 54.7758 47.1188 52.9277 46.2848 51.2064C46.1013 50.8078 46.0512 49.9019 46.0512 47.2566V43.8141L46.9854 44.4301C47.5025 44.7743 48.4533 45.2635 49.0871 45.5353ZM33.9744 48.2712C34.3414 50.1012 35.2421 52.0399 36.2597 53.1632L36.7768 53.7612H30.3213H23.8659L24.6165 52.7646C25.4839 51.5869 26.0844 50.3911 26.368 49.2315C26.4681 48.7785 26.5849 48.2712 26.6349 48.09C26.7183 47.8183 27.0352 47.782 30.288 47.782H33.8743L33.9744 48.2712ZM43.5491 50.7716V53.7612H43.1655C42.2981 53.7612 40.7635 53.3444 39.8794 52.8552C38.3114 52.0037 36.8602 50.0287 36.4432 48.2169L36.3431 47.782H39.9461H43.5491V50.7716ZM46.8519 55.12C48.4032 56.2434 51.8895 57.4211 55.4758 58.0371C58.1114 58.4901 63.8329 58.5807 66.7353 58.2183C70.8388 57.6929 74.0581 56.7507 76.3767 55.3737L77.5778 54.649V58.2002V61.7333L76.9939 62.4399C75.0089 64.8316 68.5201 66.6253 61.9146 66.6253C55.1589 66.6253 48.6367 64.8316 46.6351 62.4399L46.0512 61.7333V58.2002C46.0512 56.2615 46.0846 54.6671 46.1346 54.6671C46.1847 54.6671 46.5016 54.8664 46.8519 55.12ZM43.5491 58.019V59.7403H28.9535H14.3579V58.019V56.2978H28.9535H43.5491V58.019ZM51.0554 67.7668C59.4292 70.3396 71.6561 69.4156 76.8938 65.8281L77.5778 65.357V68.9807V72.6045L76.9272 73.293C75.5427 74.7425 72.4568 76.047 68.6536 76.7899C66.7186 77.1703 65.968 77.2247 61.8145 77.2247C57.7277 77.2247 56.8937 77.1703 55.1422 76.8261C50.6051 75.9202 47.4191 74.4707 46.3348 72.7856C46.0846 72.4052 46.0512 71.8616 46.0512 68.872V65.4114L47.7693 66.3354C48.7035 66.8609 50.188 67.495 51.0554 67.7668Z" fill="#E0E0E0"/>
<path d="M31.7391 11.4906C31.6223 11.5268 31.4555 11.7261 31.3554 11.9254C31.272 12.1247 30.1878 16.3645 28.9534 21.3471C27.1853 28.5039 26.7516 30.4969 26.8683 30.8593C27.1853 31.7652 28.453 31.8921 28.9367 31.0586C29.2036 30.6056 33.5406 13.1212 33.5406 12.5052C33.5406 11.7805 32.473 11.1644 31.7391 11.4906Z" fill="#E0E0E0"/>
<path d="M21.0802 17.5784C17.2604 21.7275 17.2604 21.1115 21.0802 25.2606C23.6157 28.0147 24.0327 28.3951 24.4998 28.3951C25.2004 28.3951 25.7008 27.8335 25.7008 27.0725C25.7008 26.5652 25.4172 26.1847 23.3655 23.9561L21.0302 21.4195L23.3655 18.8829C25.4005 16.6543 25.7008 16.2738 25.7008 15.7484C25.7008 15.0055 25.2004 14.4438 24.4998 14.4438C24.0327 14.4438 23.6157 14.8243 21.0802 17.5784Z" fill="#E0E0E0"/>
<path d="M34.8918 15.0961C34.2246 16.0201 34.358 16.2919 36.9102 19.0822L39.2788 21.6912L36.9102 24.2822C35.4256 25.9129 34.5415 27.0181 34.5415 27.2536C34.5415 27.8878 35.1754 28.5763 35.7759 28.5763C36.2429 28.5763 36.66 28.1958 39.2621 25.3512C41.7309 22.6515 42.2146 22.0355 42.2146 21.6006C42.2146 21.1477 41.7309 20.5498 39.2455 17.8501C36.66 15.0417 36.2096 14.625 35.7592 14.625C35.3922 14.625 35.1253 14.7699 34.8918 15.0961Z" fill="#E0E0E0"/>
<path d="M48.3867 48.5068C48.003 48.9235 47.953 49.7207 48.2866 50.2462C48.42 50.4455 48.837 50.7354 49.2207 50.8622C49.8212 51.0796 49.988 51.0796 50.355 50.8441C51.3391 50.2462 51.2057 49.0141 50.1214 48.4343C49.3541 48.0538 48.787 48.0719 48.3867 48.5068Z" fill="#E0E0E0"/>
<path d="M48.3864 59.378C47.9694 59.8309 47.9527 60.7187 48.3697 61.1717C48.5532 61.371 49.0036 61.6247 49.3706 61.7515C49.9377 61.9327 50.1045 61.9146 50.4548 61.6609C51.3556 61.0268 51.1721 59.7585 50.1212 59.2874C49.3039 58.925 48.7868 58.9431 48.3864 59.378Z" fill="#E0E0E0"/>
<path d="M48.3199 70.2854C48.0196 70.7564 47.9696 71.3906 48.2198 71.8798C48.47 72.4052 49.721 72.8401 50.2715 72.6226C50.822 72.3871 51.1389 71.7167 50.9888 71.0645C50.7386 70.0317 48.837 69.47 48.3199 70.2854Z" fill="#E0E0E0"/>
</svg>
