<svg width="80" height="80" viewBox="0 0 80 80" fill="none" xmlns="http://www.w3.org/2000/svg">
<path d="M27.3132 1.77229C19.8736 5.50375 12.434 14.145 8.22901 23.9646C5.96479 29.66 2.89192 36.3373 1.75981 39.0868C-2.76863 48.7101 2.08327 66.5818 9.03766 66.5818C11.4636 66.5818 11.7871 63.8323 11.4636 45.3714C11.1402 25.7322 11.4636 23.9646 15.1834 17.8765C27.1514 -1.36999 54.1603 -0.780807 64.9963 18.662C67.9074 23.9646 68.3926 27.6961 68.3926 42.8183C68.2309 59.708 67.9074 61.0828 64.1876 64.6178C61.5999 66.9745 58.6888 67.9565 55.9394 67.1709C50.2788 65.7962 45.7504 71.2952 48.0146 76.5978C50.764 82.6859 59.0122 80.1328 61.2765 72.6699C61.4382 71.4916 64.9963 68.5457 69.0395 65.9926C77.6112 60.4936 80.6841 54.4054 79.8754 44.9786C79.2285 38.4977 76.9643 33.5878 66.937 15.3234C61.5999 5.70014 51.0875 -0.191628 39.7664 0.00476074C34.9145 0.00476074 29.4156 0.790329 27.3132 1.77229ZM77.126 46.9425C77.126 49.8884 75.8322 54.4054 74.3766 56.5658C71.4655 60.69 71.4655 60.4936 71.4655 46.9425C71.4655 33.3915 71.4655 33.1951 74.3766 37.3193C75.8322 39.4796 77.126 43.9966 77.126 46.9425ZM8.39074 49.1028C8.39074 62.4575 8.39074 62.6539 5.4796 58.5297C2.08327 53.4235 1.92154 45.3714 5.31787 39.4796C6.61171 37.1229 7.90555 35.159 8.06728 35.159C8.22901 35.159 8.39074 41.4435 8.39074 49.1028ZM56.9098 72.2771C57.3949 73.2591 57.0715 74.8302 56.1011 75.4194C53.6752 77.1869 49.1467 74.8302 50.4406 72.4735C51.7344 69.9204 55.6159 69.9204 56.9098 72.2771Z" fill="#E0E0E0"/>
<path d="M17.2859 41.0507V54.7982H31.0329C44.2948 54.7982 44.78 54.9945 43.1627 58.5296C39.7664 66.1889 42.1923 66.5817 54.1603 59.708L62.5703 54.9945V41.0507V27.3032H39.9281H17.2859V41.0507ZM59.3357 41.6399C59.3357 51.0667 58.8505 52.2451 54.6455 55.3873C48.6615 59.708 48.0146 59.5116 48.0146 54.7982C48.0146 51.2631 46.8825 50.8703 34.2675 50.8703H20.5205V41.0507V31.2311H39.9281H59.3357V41.6399Z" fill="#E0E0E0"/>
<path d="M26.0193 37.9084C24.5637 42.6219 26.6662 47.3353 29.7391 46.5497C33.6206 45.7641 33.6206 36.3373 29.7391 35.5517C28.2835 35.1589 26.5045 36.3373 26.0193 37.9084Z" fill="#E0E0E0"/>
<path d="M47.0444 37.9084C45.5888 42.6219 47.6913 47.3353 50.7642 46.5497C54.6457 45.7641 54.6457 36.3373 50.7642 35.5517C49.3086 35.1589 47.5296 36.3373 47.0444 37.9084Z" fill="#E0E0E0"/>
</svg>
