<svg width="80" height="80" viewBox="0 0 80 80" fill="none" xmlns="http://www.w3.org/2000/svg">
<path d="M0.426178 0.328324L0.0119629 0.6409V4.51683C0.0119629 8.3615 0.0119629 8.37713 0.426178 9.18982C1.70069 11.706 5.26931 12.2843 7.53156 10.3307C8.71048 9.33048 8.7742 9.00228 8.7742 4.56371C8.7742 0.719043 8.7742 0.625271 8.42371 0.312696C8.02543 -0.0467653 7.38818 -0.0936518 6.97396 0.218924C6.48009 0.578384 6.3845 1.37545 6.3845 4.81377V8.1427L5.95436 8.53341C5.03034 9.37737 3.70804 9.36174 2.81588 8.48653L2.40166 8.08018V4.57934C2.40166 1.81306 2.35387 0.984732 2.16269 0.6409C1.79627 -0.078023 1.11123 -0.203053 0.426178 0.328324Z" fill="#E0E0E0"/>
<path d="M11.8966 0.328292L11.4824 0.640867V5.72021V10.7996L11.8807 11.1746C12.3109 11.6122 12.5498 11.6435 13.1234 11.3934C13.8243 11.0809 13.8721 10.737 13.8721 5.61081V0.765897L13.4738 0.390807C12.9959 -0.0780554 12.4542 -0.109313 11.8966 0.328292Z" fill="#E0E0E0"/>
<path d="M21.3759 0.265826C21.0413 0.547144 16.8992 9.90876 16.8992 10.3933C16.8992 11.4716 18.6038 11.9092 19.1136 10.9559C19.5916 10.0807 23.2717 1.34421 23.2717 1.07852C23.2717 0.640916 22.5707 0.000137329 22.1087 0.000137329C21.8857 0.000137329 21.5671 0.125168 21.3759 0.265826Z" fill="#E0E0E0"/>
<path d="M26.3783 0.390838L25.98 0.765927V4.40742C25.98 6.53293 26.0596 8.29898 26.1552 8.65844C26.3783 9.43988 27.5572 10.6746 28.4971 11.1278C30.5204 12.0811 33.3881 11.1434 34.4714 9.15856C34.8059 8.54904 34.8219 8.33024 34.8219 4.56371V0.594011L34.4395 0.297065C33.9616 -0.0936537 33.4518 -0.0780249 32.926 0.328322L32.5118 0.640898V4.18862C32.5118 6.68922 32.4481 7.84575 32.3047 8.12707C32.2091 8.34587 31.779 8.6897 31.3488 8.89287C30.377 9.36174 29.6442 9.25234 28.8954 8.51778L28.3697 8.00204V4.3918V0.765927L27.9714 0.390838C27.7643 0.172035 27.3979 0.000119209 27.1748 0.000119209C26.9518 0.000119209 26.5854 0.172035 26.3783 0.390838Z" fill="#E0E0E0"/>
<path d="M37.2592 0.218844C36.8609 0.500162 36.6697 1.10968 36.8291 1.53166C36.9406 1.81298 38.6612 4.31357 39.3781 5.2513C39.4737 5.3607 38.9001 6.2828 37.9283 7.65813C36.144 10.1587 35.9847 10.6432 36.7494 11.2371C37.6097 11.9091 37.9761 11.6591 39.6808 9.28352L40.9871 7.47058L42.3413 9.37729C43.0901 10.4244 43.8707 11.3465 44.0778 11.4403C44.7788 11.7529 45.7347 11.0652 45.7347 10.2525C45.7347 10.1431 45.0178 9.03346 44.1415 7.81441C43.2653 6.57974 42.5484 5.50136 42.5484 5.42322C42.5484 5.34507 43.1538 4.43861 43.9026 3.40711C44.6991 2.29747 45.2567 1.35974 45.2567 1.14094C45.2567 0.672078 44.5876 4.19617e-05 44.1415 4.19617e-05C43.5521 4.19617e-05 43.2335 0.28136 42.1342 1.79735C41.5447 2.61004 41.019 3.28208 40.9712 3.28208C40.9234 3.28208 40.4455 2.67256 39.9197 1.92238C39.394 1.1722 38.8205 0.437647 38.6612 0.28136C38.2947 -0.0468445 37.6415 -0.0781021 37.2592 0.218844Z" fill="#E0E0E0"/>
<path d="M69.9981 0.15686C69.2812 0.43811 69.1219 1.28186 69.6476 1.93811L69.9662 2.34436H74.666C79.1427 2.34436 79.3657 2.32874 79.6684 2.03186C80.1464 1.56311 80.0986 0.734985 79.5729 0.328735C79.1586 0.0162354 78.9675 0.000610352 74.7457 0.0162354C72.3241 0.0162354 70.1893 0.0787354 69.9981 0.15686Z" fill="#E0E0E0"/>
<path d="M70.0301 4.70483C69.2494 5.14233 69.1061 5.79858 69.6477 6.47046L69.9663 6.87671H74.6661C79.1428 6.87671 79.3658 6.86108 79.6685 6.56421C80.0668 6.17358 80.0828 5.45483 79.6845 4.98608L79.3818 4.61108L74.8573 4.57983C71.7666 4.54858 70.2531 4.59546 70.0301 4.70483Z" fill="#E0E0E0"/>
<path d="M69.6478 9.62781C69.4566 9.86218 69.3132 10.1903 69.3132 10.3778C69.3132 10.8622 69.8549 11.3778 70.4603 11.4872C70.7471 11.5497 72.8819 11.5653 75.176 11.5341C79.3659 11.4872 79.3818 11.4872 79.6845 11.1122C80.0828 10.6434 80.0669 9.92468 79.6686 9.53406C79.3659 9.23718 79.1429 9.22156 74.6662 9.22156H69.9664L69.6478 9.62781Z" fill="#E0E0E0"/>
<path d="M0.330502 17.0358C-0.147438 17.5045 -0.0996442 18.3326 0.42609 18.7389L0.856237 19.067H39.9996H79.1429L79.573 18.7389C80.1147 18.317 80.1466 17.5045 79.6367 17.0358L79.2863 16.7233H39.9677C0.856236 16.7233 0.649129 16.7233 0.330502 17.0358Z" fill="#E0E0E0"/>
<path d="M3.07078 24.459C1.70069 24.881 0.665148 25.8656 0.203139 27.1784C0.0756883 27.5222 0.0119629 28.8819 0.0119629 30.9449C0.0119629 34.4926 0.0278942 34.5395 0.999706 34.774C1.3502 34.8677 1.52544 34.7896 1.92372 34.4145L2.40166 33.9456V30.898C2.40166 28.0536 2.4176 27.8348 2.73622 27.4441C3.45313 26.5376 3.13451 26.5689 13.5855 26.5689C22.8257 26.5689 23.208 26.5845 23.7019 26.8814C24.7533 27.5066 24.7056 26.9908 24.7056 38.9937C24.7056 48.7461 24.6737 49.9495 24.4506 50.4183C23.9408 51.4498 24.3232 51.4186 13.474 51.4186C4.64798 51.4186 3.62838 51.3873 3.26196 51.1685C2.49725 50.6684 2.48132 50.5902 2.40166 44.4169L2.32201 38.5717L1.93966 38.2748C1.46172 37.8841 0.728874 37.8997 0.33059 38.2904C0.0278942 38.5874 0.0119629 38.8062 0.0119629 44.5732C0.0119629 50.0901 0.0438256 50.6059 0.314658 51.1998C0.760736 52.1531 1.66882 53.0596 2.56098 53.4347C3.34161 53.7629 3.4372 53.7629 13.7607 53.7316L24.1798 53.6847L24.9605 53.2159C25.8048 52.7001 26.6651 51.5905 26.9359 50.6684C27.0315 50.2933 27.0953 46.0579 27.0953 38.9625C27.0953 28.1161 27.0793 27.8035 26.7607 26.9752C26.3465 25.8656 25.1835 24.8028 24.0205 24.459C22.8894 24.1308 4.13818 24.1308 3.07078 24.459Z" fill="#E0E0E0"/>
<path d="M35.0929 24.5215C33.8821 24.9279 33.213 25.553 32.5916 26.8033L32.1934 27.5847L32.2093 52.1219C32.2093 70.5013 32.2571 76.784 32.4005 77.1591C32.751 78.0968 33.5475 78.9877 34.4397 79.4722L35.3 79.941H56.0904H76.8808L77.7411 79.4722C78.6332 78.9877 79.4298 78.0968 79.7803 77.1591C79.9237 76.784 79.9715 70.5013 79.9715 52.1219L79.9874 27.5847L79.605 26.8033C79.143 25.8187 78.3783 25.0529 77.4384 24.6309C76.7215 24.3027 76.6418 24.3027 56.3294 24.2715C36.909 24.2402 35.8894 24.2402 35.0929 24.5215ZM76.4825 26.8033C76.7215 26.9283 77.0879 27.2253 77.2631 27.4441L77.5977 27.8661V52.1375V76.4246L77.056 77.0185L76.5144 77.5967H56.0904H35.6664L35.1247 77.0185L34.5831 76.4246V52.1531C34.5831 25.2873 34.4875 27.5222 35.6027 26.8658C36.0806 26.5845 36.686 26.5689 56.0585 26.5689C73.3759 26.5689 76.0842 26.6001 76.4825 26.8033Z" fill="#E0E0E0"/>
<path d="M53.0632 33.1487C48.9052 34.2115 45.6392 37.1184 44.2851 41.01C43.9187 42.0258 43.8549 42.4165 43.9664 42.7135C44.2373 43.4012 45.1932 43.6825 45.7826 43.2449C45.926 43.1511 46.2287 42.5728 46.4517 41.9946C47.1049 40.2285 47.6625 39.3689 49.0008 38.0561C51.0559 36.04 53.1907 35.1648 56.0902 35.1648C58.9897 35.1648 61.1245 36.04 63.1797 38.0561C65.3304 40.1504 66.1907 42.2134 66.1747 45.1672C66.1747 46.5113 66.0951 47.0427 65.7446 48.0898C64.1355 52.9503 59.0534 55.826 53.9395 54.7789C52.4897 54.4819 50.4664 53.4817 49.3512 52.4971C48.2042 51.4968 46.9775 49.6995 46.5314 48.3398C46.3243 47.7616 46.0694 47.1677 45.9419 47.0114C45.5914 46.6207 44.9542 46.5269 44.5081 46.8082C43.8709 47.2146 43.7912 47.6834 44.1576 48.7931C45.9897 54.2475 51.1515 57.6858 56.9824 57.3107C60.5988 57.0763 64.1355 55.154 66.2066 52.2939C68.6919 48.84 69.2814 44.9328 67.8953 41.01C67.2421 39.1501 66.2066 37.6029 64.5975 36.1182C63.4824 35.0867 62.9248 34.6959 61.6184 34.0708C60.7262 33.6644 59.4836 33.1956 58.8463 33.0706C57.2373 32.7267 54.5767 32.758 53.0632 33.1487Z" fill="#E0E0E0"/>
<path d="M44.2053 62.4213C39.9994 63.7184 39.6012 69.5011 43.584 71.4234L44.3806 71.8141L55.883 71.861C67.2261 71.8923 67.3854 71.8923 68.2776 71.5641C70.7629 70.6576 72.0215 67.7819 71.0496 65.2501C70.6036 64.0935 69.4565 62.9683 68.2776 62.5307C67.4014 62.2025 67.1624 62.2025 56.122 62.2181C47.4235 62.2181 44.7151 62.265 44.2053 62.4213ZM67.7359 64.9062C69.4246 66.0159 69.4246 68.0789 67.7359 69.1885L67.1943 69.548H56.0901H44.986L44.4443 69.1885C43.6159 68.6415 43.1857 67.9069 43.1857 67.0474C43.1857 66.1878 43.6159 65.4532 44.4443 64.9062L44.986 64.5468H56.0901H67.1943L67.7359 64.9062Z" fill="#E0E0E0"/>
<path d="M6.70306 31.6801C6.19326 31.8676 5.90649 32.2582 5.90649 32.7738C5.90649 33.5707 6.3685 33.9144 7.40404 33.9144C8.15281 33.9144 8.31213 33.8519 8.59889 33.5082C9.14056 32.8363 9.01311 32.1644 8.28027 31.8051C7.83419 31.5707 7.14914 31.5238 6.70306 31.6801Z" fill="#E0E0E0"/>
<path d="M12.98 31.7426C12.6295 31.9144 12.2791 32.4926 12.2791 32.8832C12.2791 32.9926 12.4224 33.2738 12.6136 33.5082L12.9322 33.9144H16.7239C20.4678 33.9144 20.5156 33.9144 20.8501 33.5551C21.2803 33.1019 21.2962 32.5082 20.8979 32.0238C20.5952 31.6488 20.5634 31.6488 16.9469 31.6176C14.6369 31.6019 13.1871 31.6488 12.98 31.7426Z" fill="#E0E0E0"/>
<path d="M6.35257 38.1346C6.01801 38.3846 5.90649 38.6034 5.90649 39.0096C5.90649 39.8221 6.35257 40.1659 7.40404 40.1659C8.15281 40.1659 8.31213 40.1034 8.59889 39.7596C9.3158 38.869 8.82193 37.9784 7.56335 37.869C6.9261 37.8065 6.70306 37.8534 6.35257 38.1346Z" fill="#E0E0E0"/>
<path d="M12.98 37.994C12.6295 38.1659 12.2791 38.744 12.2791 39.1346C12.2791 39.244 12.4224 39.5253 12.6136 39.7596L12.9322 40.1659H16.7239C20.4678 40.1659 20.5156 40.1659 20.8501 39.8065C21.2803 39.3534 21.2962 38.7596 20.8979 38.2753C20.5952 37.9003 20.5634 37.9003 16.9469 37.869C14.6369 37.8534 13.1871 37.9003 12.98 37.994Z" fill="#E0E0E0"/>
<path d="M6.35257 44.3861C6.01801 44.6361 5.90649 44.8549 5.90649 45.2611C5.90649 46.0736 6.35257 46.4174 7.40404 46.4174C8.15281 46.4174 8.31213 46.3549 8.59889 46.0111C9.3158 45.1205 8.82193 44.2299 7.56335 44.1205C6.9261 44.058 6.70306 44.1049 6.35257 44.3861Z" fill="#E0E0E0"/>
<path d="M12.98 44.2455C12.6295 44.4174 12.2791 44.9955 12.2791 45.4174C12.2791 45.5424 12.4543 45.8236 12.6773 46.0267L13.0597 46.4174H16.7876C20.4678 46.4174 20.5156 46.4174 20.8501 46.058C21.2803 45.6049 21.2962 45.0111 20.8979 44.5267C20.5952 44.1517 20.5634 44.1517 16.9469 44.1205C14.6369 44.1049 13.1871 44.1517 12.98 44.2455Z" fill="#E0E0E0"/>
<path d="M2.94328 59.8269C1.66877 60.2645 0.92 60.9521 0.33054 62.2337C0.027844 62.8745 0.0119127 63.2808 0.027844 69.7824C0.027844 74.6429 0.0915694 76.7997 0.21902 77.1592C0.56951 78.0969 1.36608 78.9877 2.25823 79.4722L3.11853 79.9411L13.219 79.988C22.2999 80.0192 23.3991 80.0036 24.116 79.7692C25.056 79.4722 26.1712 78.5032 26.6651 77.5968C26.9996 76.9872 27.0155 76.7997 27.0633 70.1106C27.1111 62.1399 27.1271 62.2181 25.741 60.8584C24.4506 59.5924 24.1957 59.5456 18.094 59.5456C13.1393 59.5456 12.9482 59.5612 12.534 59.8738C12.0082 60.2801 11.9604 61.1084 12.4384 61.5773C12.7411 61.8742 12.9641 61.8899 17.855 61.8899C23.5266 61.8899 23.8133 61.9368 24.3869 62.8589C24.6896 63.359 24.7055 63.6247 24.7055 69.7824C24.7055 75.862 24.6896 76.2214 24.3869 76.6903C23.7496 77.7218 24.1479 77.6905 13.2987 77.6436L3.48495 77.5968L2.94328 77.0185L2.40162 76.4246V69.798C2.40162 63.3277 2.40162 63.1714 2.73617 62.7651C3.34156 62.0149 3.80357 61.8899 6.06583 61.8899C7.92979 61.8899 8.16876 61.8586 8.45553 61.5773C8.93347 61.1084 8.88567 60.2801 8.35994 59.8738C7.97759 59.5768 7.72269 59.5456 5.84279 59.5456C4.28151 59.5612 3.54867 59.6237 2.94328 59.8269Z" fill="#E0E0E0"/>
<path d="M7.42001 69.0013C7.19697 69.2045 7.02173 69.5638 7.02173 69.7826C7.02173 70.0013 7.19697 70.3607 7.42001 70.5638L7.80236 70.9545H13.5058C19.7031 70.9545 19.7668 70.9388 19.9898 70.0951C20.1014 69.642 19.7509 68.8607 19.3685 68.7045C19.2251 68.6576 16.5646 68.6107 13.458 68.6107H7.80236L7.42001 69.0013Z" fill="#E0E0E0"/>
</svg>
