<svg width="30" height="30" viewBox="0 0 30 30" fill="none" xmlns="http://www.w3.org/2000/svg">
<g clip-path="url(#clip0_204_522)">
<path d="M15 0C11.0227 0 7.20469 1.58133 4.39453 4.39336C1.5815 7.20652 0.000804958 11.0217 0 15C0 18.9766 1.58203 22.7946 4.39453 25.6066C7.20469 28.4187 11.0227 30 15 30C18.9773 30 22.7953 28.4187 25.6055 25.6066C28.418 22.7946 30 18.9766 30 15C30 11.0234 28.418 7.20539 25.6055 4.39336C22.7953 1.58133 18.9773 0 15 0Z" fill="url(#paint0_linear_204_522)"/>
<path d="M6.79005 14.8416C11.1635 12.9366 14.0791 11.6806 15.5369 11.0737C19.7041 9.34101 20.569 9.04007 21.1338 9.02987C21.258 9.02788 21.5346 9.05858 21.715 9.20448C21.865 9.32753 21.9072 9.49394 21.9283 9.61077C21.9471 9.72749 21.9729 9.99351 21.9518 10.2012C21.7268 12.573 20.7494 18.3288 20.2526 20.9855C20.044 22.1095 19.6291 22.4864 19.2283 22.5232C18.3565 22.6033 17.6955 21.9476 16.8518 21.3947C15.5322 20.5291 14.7869 19.9905 13.5049 19.1461C12.0236 18.1701 12.9846 17.6337 13.8283 16.7571C14.0486 16.5276 17.8877 13.0366 17.9604 12.72C17.9697 12.6804 17.9791 12.5327 17.89 12.4549C17.8033 12.3769 17.6744 12.4036 17.5807 12.4247C17.4471 12.4547 15.34 13.8487 11.2525 16.6066C10.6549 17.0177 10.1135 17.2181 9.62599 17.2076C9.09161 17.1961 8.06036 16.9048 7.29396 16.6559C6.35646 16.3505 5.6088 16.189 5.67442 15.6703C5.70724 15.4003 6.07989 15.124 6.79005 14.8416Z" fill="white"/>
</g>
<defs>
<linearGradient id="paint0_linear_204_522" x1="1500" y1="0" x2="1500" y2="3000" gradientUnits="userSpaceOnUse">
<stop stop-color="#2AABEE"/>
<stop offset="1" stop-color="#229ED9"/>
</linearGradient>
<clipPath id="clip0_204_522">
<rect width="30" height="30" fill="white"/>
</clipPath>
</defs>
</svg>
