<svg width="150" height="150" viewBox="0 0 150 150" fill="none" xmlns="http://www.w3.org/2000/svg">
<path d="M136.606 58.9601C138.708 60.3831 140.387 62.6859 141.083 65.1342C141.663 68.6808 141.303 71.7621 139.252 74.7621C137.259 77.2417 134.878 78.6512 131.744 79.0467C129.313 79.2084 127.126 78.8036 124.997 77.6082C124.463 77.2991 124.463 77.2991 123.633 77.0509C122.924 77.4929 122.924 77.4929 122.186 78.1495C121.756 78.5143 121.756 78.5143 121.318 78.8865C120.263 79.8095 119.233 80.7587 118.207 81.713C117.266 82.5839 116.301 83.408 115.302 84.2103C113.904 85.3347 112.594 86.5304 111.286 87.7562C110.011 88.9436 108.691 90.0482 107.326 91.1317C106.626 91.6905 106.626 91.6905 106.001 92.3585C105.469 92.8712 105.469 92.8712 104.883 92.8712C105.005 93.1363 105.005 93.1363 105.129 93.4068C105.235 93.6409 105.341 93.8751 105.45 94.1163C105.556 94.3474 105.661 94.5786 105.77 94.8167C106.752 97.1995 106.692 100.056 105.89 102.484C104.554 105.661 102.426 107.36 99.4629 108.948C97.072 109.756 93.4544 109.695 91.1064 108.72C88.5459 107.298 86.3042 105.19 85.2905 102.393C84.5352 99.6717 84.7358 97.3996 85.2539 94.629C85.0878 94.532 84.9217 94.4351 84.7506 94.3352C81.7425 92.5762 78.7468 90.8037 75.8057 88.9344C75.5763 88.7893 75.3469 88.6441 75.1106 88.4945C74.1643 87.8948 73.2218 87.2913 72.2866 86.6742C72.0279 86.5077 71.7692 86.3411 71.5027 86.1695C71.2946 86.0313 71.0865 85.8931 70.8721 85.7507C70.3094 85.4796 70.3094 85.4796 69.7266 85.7473C69.1207 86.1461 68.535 86.5641 67.9504 86.9935C65.5018 88.638 62.7406 89.1352 59.8572 88.6323C58.1222 88.2275 56.7972 87.5972 55.3631 86.5438C54.7774 86.1274 54.2874 85.799 53.6133 85.547C53.027 85.7178 53.027 85.7178 52.4643 86.1043C52.2397 86.2423 52.0151 86.3803 51.7837 86.5225C51.4204 86.7557 51.4204 86.7557 51.0498 86.9935C50.7963 87.151 50.5428 87.3085 50.2816 87.4708C49.7307 87.8139 49.1812 88.1592 48.6328 88.5064C47.7201 89.084 46.8037 89.6553 45.8862 90.2253C44.6838 90.9732 43.4828 91.7232 42.2836 92.4764C42.018 92.6429 41.7523 92.8094 41.4785 92.9809C40.9899 93.2888 40.5026 93.5989 40.0171 93.9116C38.44 94.922 38.44 94.922 37.793 94.922C37.938 95.4749 37.938 95.4749 38.0859 96.0389C38.7892 99.267 38.4694 102.255 36.7126 105.084C35.0571 107.398 32.7384 109.324 29.8828 109.863C26.167 110.156 23.2007 109.756 20.2332 107.282C17.9353 105.054 16.7483 102.426 16.571 99.2066C16.7007 96.0674 17.9367 93.4074 20.1153 91.2084C22.6803 88.8537 25.2859 88.3319 28.6755 88.3966C31.5069 88.5277 33.497 89.7079 35.4492 91.6993C39.7606 89.3235 43.9014 86.663 48.056 84.0261C48.2736 83.8885 48.4912 83.751 48.7154 83.6094C49.1139 83.3573 49.5117 83.1042 49.9087 82.8498C51.2038 82.0314 51.2038 82.0314 51.8555 82.0314C51.7195 81.7594 51.7195 81.7594 51.5808 81.482C50.5847 78.5524 50.9292 75.6042 52.2583 72.8395C53.8822 69.8638 56.3246 68.1446 59.5642 67.1815C62.6815 66.819 65.7701 67.2174 68.3899 69.0858C70.5452 70.9008 72.1248 73.0584 72.6562 75.879C72.7673 77.9994 72.8331 80.0289 72.0703 82.0314C72.3836 82.147 72.3836 82.147 72.7032 82.265C73.5712 82.6325 74.3276 83.0689 75.1282 83.566C75.5899 83.8515 75.5899 83.8515 76.061 84.1428C76.3876 84.3463 76.7143 84.5499 77.0508 84.7596C77.3894 84.9695 77.7281 85.1793 78.0669 85.3891C78.7573 85.8167 79.4473 86.245 80.137 86.6738C81.3851 87.4498 82.6352 88.2224 83.8852 88.9953C85.0255 89.7005 86.1652 90.4068 87.3047 91.1134C87.4806 90.9944 87.6565 90.8753 87.8377 90.7527C88.0712 90.5956 88.3047 90.4386 88.5452 90.2768C88.7755 90.1215 89.0058 89.9662 89.243 89.8063C92.1073 87.9579 94.9863 87.4069 98.386 88.0464C99.9195 88.4785 101.171 89.1359 102.539 89.9415C102.777 89.7183 103.014 89.4951 103.259 89.2652C105.047 87.5948 106.857 85.9886 108.766 84.4564C109.647 83.7252 110.49 82.9578 111.328 82.1778C112.415 81.1666 113.521 80.1958 114.679 79.2665C116.889 77.4878 119.011 75.5622 120.996 73.5353C120.911 73.3782 120.827 73.2211 120.74 73.0592C119.432 70.2982 119.348 67.1126 120.245 64.1969C121.472 61.3182 123.801 59.3242 126.575 58.0194C129.906 56.6969 133.522 57.2705 136.606 58.9601ZM125.098 63.5743C123.754 65.5352 123.27 67.3694 123.633 69.7267C124.171 71.8228 125.336 73.253 127.148 74.4142C129.239 75.4508 131.1 75.4094 133.301 74.7071C134.969 73.8572 136.333 72.4836 137.152 70.791C137.785 68.8432 137.653 66.7904 136.816 64.9293C135.835 63.2003 134.508 62.2444 132.733 61.4137C129.915 60.8385 127.053 61.2781 125.098 63.5743ZM56.543 73.2423C55.1398 75.2553 54.5984 76.9155 54.95 79.3763C55.5387 81.3441 56.6101 82.9988 58.374 84.0821C60.2262 84.9771 62.0573 85.216 64.0503 84.6681C65.9849 83.9079 67.4693 82.6292 68.4082 80.7679C69.1391 78.846 69.1391 77.0136 68.4082 75.0917C67.4972 73.2793 66.0219 71.9978 64.1602 71.2098C61.3651 70.3381 58.5864 71.1421 56.543 73.2423ZM89.6942 94.6748C88.5396 96.5159 88.5697 98.3744 88.7695 100.488C89.2821 102.464 90.6721 103.717 92.2852 104.883C94.0308 105.82 95.8784 105.911 97.7726 105.424C99.9109 104.626 101.25 103.08 102.246 101.074C102.872 99.1978 102.711 97.2366 101.925 95.4324C101.06 93.7637 99.7906 92.8282 98.1445 91.9923C94.8589 90.9582 91.833 92.0386 89.6942 94.6748ZM21.8204 95.1566C20.6517 96.8927 20.3143 98.5928 20.6154 100.659C21.1603 102.741 22.5681 104.275 24.3164 105.469C26.0111 106.316 28.1207 106.365 29.9435 105.884C31.9356 105.024 33.466 103.283 34.4238 101.367C34.8846 98.6026 34.3353 96.8004 32.9224 94.4093C31.3604 92.9296 29.6551 92.1968 27.5024 92.1205C24.9641 92.2472 23.4071 93.1923 21.8204 95.1566Z" fill="#4D5CFF"/>
<path d="M76.6743 4.26754C76.9966 4.26524 76.9966 4.26524 77.3254 4.26289C77.7782 4.26101 78.231 4.26139 78.6838 4.26389C79.3732 4.26639 80.0619 4.25796 80.7513 4.24866C81.1928 4.24819 81.6344 4.24836 82.0759 4.24923C82.2802 4.24594 82.4844 4.24265 82.6948 4.23926C84.1662 4.26004 85.0042 4.63697 86.1329 5.56645C87.1404 7.24148 87.1206 8.75683 87.0667 10.6751C87.0627 10.9453 87.0588 11.2155 87.0547 11.4939C87.0444 12.155 87.03 12.8157 87.0118 13.4766C87.4744 13.6329 87.9386 13.7846 88.4034 13.9344C88.6617 14.0193 88.92 14.1043 89.1862 14.1919C89.9987 14.3679 90.3404 14.3314 91.1133 14.0625C91.872 13.3451 92.578 12.6036 93.282 11.8338C94.2449 10.8205 94.9784 10.2688 96.3868 9.96098C98.2098 9.93157 99.064 10.3419 100.365 11.5906C100.716 11.9441 100.716 11.9441 101.074 12.3047C101.42 12.6408 101.767 12.9764 102.113 13.3118C102.488 13.6776 102.861 14.0438 103.235 14.4104C103.416 14.588 103.598 14.7656 103.785 14.9485C103.956 15.1195 104.127 15.2905 104.304 15.4667C104.458 15.6194 104.611 15.772 104.77 15.9293C105.775 17.11 105.943 18.2362 105.909 19.7503C105.639 21.139 104.712 21.9128 103.711 22.8516C103.277 23.2906 102.844 23.7301 102.411 24.17C102.064 24.5125 101.716 24.8546 101.367 25.1954C101.427 25.3721 101.487 25.5488 101.549 25.7309C101.628 25.9651 101.707 26.1992 101.788 26.4405C101.867 26.6716 101.945 26.9027 102.025 27.1408C102.223 27.7586 102.385 28.3744 102.539 29.0039C102.716 28.9993 102.893 28.9947 103.076 28.99C103.886 28.9716 104.696 28.9603 105.505 28.949C105.784 28.9417 106.063 28.9343 106.35 28.9267C107.927 28.9103 109.126 28.9236 110.449 29.8829C111.517 31.2145 111.769 32.1054 111.766 33.8013C111.767 34.0027 111.767 34.2042 111.768 34.4117C111.767 34.8352 111.764 35.2587 111.758 35.6821C111.749 36.3265 111.752 36.9701 111.756 37.6145C111.74 41.1171 111.74 41.1171 110.742 42.7735C109.652 43.7617 108.705 43.9827 107.26 43.974C106.985 43.973 106.71 43.9721 106.427 43.9711C106.141 43.9686 105.855 43.9662 105.56 43.9637C105.271 43.9623 104.981 43.961 104.683 43.9597C103.968 43.9562 103.254 43.9514 102.539 43.9454C102.398 44.3602 102.258 44.7753 102.118 45.1905C102.04 45.4216 101.962 45.6527 101.881 45.8908C101.808 46.1189 101.735 46.3471 101.66 46.5821C101.585 46.7837 101.509 46.9853 101.431 47.193C101.303 47.776 101.303 47.776 101.706 48.2542C101.877 48.4162 102.049 48.5781 102.226 48.745C102.41 48.9236 102.595 49.1023 102.785 49.2863C102.982 49.4695 103.179 49.6526 103.381 49.8413C103.766 50.2077 104.149 50.5747 104.533 50.9423C104.705 51.1036 104.877 51.2649 105.054 51.4311C105.795 52.1896 105.824 52.8043 105.853 53.833C105.864 54.0793 105.875 54.3255 105.887 54.5792C105.548 56.7258 103.555 58.242 102.081 59.6924C101.744 60.0295 101.744 60.0295 101.4 60.3733C98.9144 62.8393 98.9144 62.8393 96.6797 62.9883C94.5128 62.6191 93.5999 61.4716 92.2286 59.8933C91.7792 59.406 91.3619 58.9763 90.8204 58.5938C89.9327 58.5409 89.9327 58.5409 89.0626 58.8868C88.6845 58.9917 88.306 59.0955 87.9273 59.198C87.6252 59.2887 87.3231 59.3793 87.0118 59.4727C87.022 59.8473 87.0322 60.222 87.0427 60.6079C87.0509 61.1084 87.0589 61.6089 87.0667 62.1094C87.0741 62.3553 87.0814 62.6011 87.089 62.8544C87.1074 64.4353 87.0586 66.0424 86.1329 67.3829C84.8258 68.4706 83.7557 68.7353 82.0965 68.731C81.8828 68.7335 81.6691 68.736 81.4488 68.7386C80.999 68.7419 80.5492 68.7422 80.0993 68.7397C79.4154 68.7378 78.733 68.7516 78.0493 68.7664C74.4016 68.7969 74.4016 68.7969 73.0946 67.701C72.1632 66.5495 72.0338 66.1233 72.0418 64.6798C72.0432 64.2266 72.0432 64.2266 72.0446 63.7642C72.0483 63.2895 72.0483 63.2895 72.0521 62.8052C72.0534 62.4865 72.0547 62.1677 72.0561 61.8393C72.0595 61.0504 72.0644 60.2616 72.0704 59.4727C71.8547 59.4338 71.6391 59.3949 71.4169 59.3548C70.3102 59.116 69.3162 58.7119 68.2618 58.3008C68.0961 58.4826 68.0961 58.4826 67.9271 58.668C67.4157 59.2225 66.8959 59.7686 66.3758 60.315C66.2023 60.5057 66.0287 60.6964 65.8499 60.8929C64.5605 62.2307 63.4096 62.9005 61.5235 62.9883C59.6777 62.5026 58.4872 61.3586 57.129 60.0586C56.8786 59.8234 56.6282 59.5881 56.3702 59.3457C53.1726 56.2608 53.1726 56.2608 52.8992 54.0345C53.1941 51.7174 54.5893 50.5124 56.2409 49.0466C56.778 48.5607 56.778 48.5607 57.4219 47.7539C57.4832 47.0157 57.4832 47.0157 57.129 46.2891C57.0558 46.1086 56.9826 45.928 56.9072 45.742C56.6979 45.2366 56.4749 44.737 56.2501 44.2383C55.9843 44.2342 55.9843 44.2342 55.7132 44.23C54.9031 44.2142 54.0936 44.1897 53.2837 44.1651C53.005 44.1609 52.7263 44.1568 52.4392 44.1525C50.6968 44.092 49.6764 43.9169 48.3399 42.7735C46.8625 41.0922 47.1039 39.2537 47.0976 37.123C47.0948 36.5347 47.0857 35.9465 47.0765 35.3583C47.075 34.9846 47.0735 34.6109 47.0719 34.2259C47.0692 33.8847 47.0664 33.5436 47.0636 33.1921C47.2422 31.5408 47.959 30.3598 49.2188 29.2969C50.0553 29.0181 50.6571 28.9483 51.5294 28.9112C51.8041 28.899 52.0789 28.8867 52.3619 28.8741C52.648 28.8625 52.9341 28.851 53.2288 28.8392C53.5183 28.8265 53.8078 28.8138 54.106 28.8008C54.8206 28.7697 55.5353 28.7398 56.2501 28.711C56.4631 28.2496 56.6694 27.7851 56.8726 27.3194C56.9882 27.0611 57.1037 26.8027 57.2228 26.5366C57.4816 25.8097 57.4816 25.8097 57.264 25.1988C56.5531 24.2199 55.6634 23.4251 54.7818 22.6038C53.5824 21.4511 53.1001 20.5761 52.9175 18.9331C53.1635 16.556 54.8465 15.0284 56.4698 13.4217C56.6684 13.2172 56.8671 13.0127 57.0717 12.802C58.4099 11.4651 59.8856 10.0969 61.8483 9.89854C63.6492 9.92294 64.7248 11.0803 65.918 12.3047C66.0967 12.5034 66.2753 12.702 66.4593 12.9067C66.9425 13.4355 67.3993 13.9209 67.9688 14.3555C69.0591 14.4009 69.8271 14.0254 70.8069 13.6025C71.1272 13.4643 71.4474 13.326 71.7774 13.1836C71.7817 12.9961 71.7859 12.8085 71.7903 12.6152C71.8122 11.7608 71.8405 10.9067 71.869 10.0525C71.8756 9.75739 71.8822 9.46226 71.889 9.15817C71.9911 6.3459 71.9911 6.3459 72.9493 5.27348C74.1576 4.36705 75.2084 4.26139 76.6743 4.26754ZM75.879 8.20316C75.8436 8.61836 75.8264 9.03512 75.8172 9.45172C75.8089 9.7072 75.8005 9.96268 75.792 10.2259C75.7769 10.7637 75.7639 11.3016 75.7531 11.8395C75.6994 13.3625 75.6119 14.5363 74.7071 15.8204C73.5476 16.742 72.3337 17.3109 70.9534 17.8345C70.6192 17.9667 70.285 18.0989 69.9406 18.2351C68.539 18.5198 67.5256 18.4412 66.211 17.8711C65.3746 17.2581 64.6918 16.5491 63.9954 15.7837C63.8117 15.5907 63.628 15.3978 63.4387 15.1989C62.9905 14.7268 62.5479 14.2507 62.1094 13.7696C60.7865 14.8759 59.5276 16.0184 58.3191 17.2486C58.1747 17.3944 58.0302 17.5401 57.8814 17.6903C57.5322 18.0429 57.184 18.3964 56.836 18.75C57.9029 20.0251 58.9913 21.2194 60.2006 22.3607C61.234 23.5033 61.3911 24.575 61.3621 26.0743C61.0612 28.0842 60.231 30.3641 58.7163 31.7437C57.7133 32.4274 57.1579 32.5639 55.9548 32.6123C55.6945 32.6234 55.4343 32.6346 55.1662 32.6461C54.835 32.6587 54.5038 32.6714 54.1627 32.6844C53.1113 32.7267 52.0599 32.769 50.9766 32.8125C50.9766 35.2295 50.9766 37.6465 50.9766 40.1368C53.0317 40.1982 53.0317 40.1982 55.087 40.2504C57.7763 40.3515 57.7763 40.3515 58.8868 41.3086C60.5598 43.1764 61.3922 45.764 61.3965 48.2369C60.9784 49.9724 59.6174 51.204 58.3741 52.4048C58.2257 52.5506 58.0772 52.6964 57.9243 52.8466C57.5629 53.2012 57.1996 53.5539 56.836 53.9063C57.879 55.1689 58.9658 56.3821 60.0953 57.5684C60.459 57.9536 60.459 57.9536 60.83 58.3466C61.4543 58.9624 61.4543 58.9624 62.1008 58.8226C63.2613 58.376 64.0554 57.2624 64.8898 56.3651C65.7544 55.4608 66.4307 54.8233 67.6758 54.4922C69.9527 54.4922 72.1531 55.4475 74.1212 56.543C75.2332 57.7287 75.6072 58.6511 75.6787 60.2543C75.6899 60.4901 75.701 60.7258 75.7125 60.9687C75.7252 61.2666 75.7378 61.5645 75.7508 61.8714C75.8142 63.2944 75.8142 63.2944 75.879 64.7461C78.296 64.7461 80.7129 64.7461 83.2032 64.7461C83.253 62.7043 83.253 62.7043 83.2904 60.6622C83.3491 58.9803 83.4431 57.8029 84.668 56.543C85.4345 56.0583 86.2237 55.7191 87.0667 55.3894C87.2769 55.2971 87.487 55.2048 87.7036 55.1096C89.2775 54.4713 90.6364 54.3013 92.2852 54.7852C93.1321 55.3391 93.1321 55.3391 93.8233 56.0303C94.0658 56.2671 94.3082 56.5039 94.558 56.7479C94.7748 56.9703 94.9916 57.1927 95.2149 57.4219C95.3833 57.5869 95.5518 57.752 95.7253 57.922C96.0484 58.2387 96.3652 58.5617 96.6797 58.8868C97.5713 58.4888 98.1806 58.0417 98.8633 57.3464C99.0446 57.1632 99.2258 56.9801 99.4126 56.7913C99.5984 56.6006 99.7842 56.4099 99.9756 56.2134C100.166 56.0204 100.356 55.8275 100.552 55.6286C101.021 55.1535 101.488 54.677 101.953 54.1993C101.581 53.3794 101.203 52.795 100.551 52.1748C100.318 51.9485 100.318 51.9485 100.08 51.7176C99.9189 51.5637 99.7575 51.4098 99.5911 51.2513C97.6098 49.362 97.6098 49.362 97.4831 47.5571C97.5025 46.1871 97.9149 45.1081 98.4742 43.8721C98.5573 43.6689 98.6403 43.4658 98.7259 43.2564C99.3411 41.8603 99.9291 41.0776 101.367 40.4297C102.479 40.2576 103.576 40.2262 104.7 40.21C106.241 40.1737 106.241 40.1737 107.813 40.1368C107.813 37.7198 107.813 35.3028 107.813 32.8125C105.867 32.7512 105.867 32.7512 103.921 32.6989C102.395 32.6385 101.19 32.5482 99.9024 31.6407C99.4412 30.9861 99.4412 30.9861 99.115 30.2491C98.998 29.9885 98.8809 29.7279 98.7603 29.4594C98.6538 29.2124 98.5473 28.9654 98.4376 28.711C98.2959 28.4311 98.2959 28.4311 98.1515 28.1456C97.4869 26.7978 97.4165 25.7857 97.5587 24.3164C98.2096 22.9721 99.1923 22.0278 100.25 21.0022C100.414 20.8412 100.578 20.6801 100.746 20.5141C101.147 20.1201 101.55 19.7278 101.953 19.336C101.555 18.4444 101.108 17.8351 100.413 17.1524C100.23 16.9712 100.046 16.7899 99.8578 16.6031C99.6671 16.4173 99.4763 16.2315 99.2798 16.0401C99.0869 15.8497 98.8939 15.6594 98.695 15.4633C98.2199 14.995 97.7434 14.5282 97.2657 14.0625C96.1638 14.5716 95.5281 15.1994 94.7022 16.095C92.542 18.2805 92.542 18.2805 90.8204 18.4571C89.8814 18.4076 89.0706 18.1756 88.1837 17.8711C87.8842 17.7699 87.5847 17.6687 87.2761 17.5644C85.4671 16.8874 84.3642 16.4669 83.4962 14.6485C83.3278 13.5436 83.3056 12.4506 83.2947 11.3343C83.2825 10.7495 83.2692 10.1647 83.2547 9.57989C83.2498 9.19394 83.2498 9.19394 83.2447 8.80019C83.2689 8.20481 83.2689 8.20481 82.9102 7.9102C82.4135 7.8811 81.9155 7.87188 81.4179 7.87129C81.1162 7.87091 80.8144 7.87053 80.5035 7.87014C80.1859 7.87127 79.8683 7.87241 79.5411 7.87357C79.0647 7.87188 79.0647 7.87188 78.5786 7.87014C78.2769 7.87052 77.9751 7.8709 77.6642 7.87129C77.2459 7.87178 77.2459 7.87178 76.8191 7.87229C76.1794 7.83783 76.1794 7.83783 75.879 8.20316Z" fill="#4D5CFF"/>
<path d="M38.4705 36.7126C38.6738 36.7713 38.8771 36.8301 39.0866 36.8906C40.299 37.271 41.1212 37.6497 41.8946 38.6718C42.6102 40.6466 41.9399 42.6232 41.3086 44.5312C42.0136 45.0054 42.0136 45.0054 43.0664 45.1172C43.8436 44.7567 43.8436 44.7567 44.6411 44.2566C46.4038 43.21 46.4038 43.21 47.5708 43.3227C49.6299 43.9617 50.5 45.2841 51.5076 47.0764C51.6267 47.2726 51.7459 47.4688 51.8686 47.6709C52.7162 49.1623 53.0086 50.4399 52.7344 52.1484C52.0922 53.7207 50.9966 54.1496 49.5358 54.8664C49.3345 55.0329 49.1332 55.1995 48.9258 55.3711C48.8081 56.2877 48.8081 56.2877 48.9258 57.1289C49.3178 57.2354 49.3178 57.2354 49.7177 57.344C50.0606 57.4422 50.4035 57.5404 50.7569 57.6416C51.0967 57.7367 51.4366 57.8319 51.7868 57.93C52.7733 58.316 53.2493 58.653 53.9063 59.4726C54.5467 61.3939 54.0908 63.1853 53.5767 65.0757C53.5215 65.3056 53.4664 65.5356 53.4096 65.7726C52.9629 67.4283 52.4384 68.2178 50.9766 69.1406C50.2464 69.3042 50.2464 69.3042 49.5484 69.2688C49.2991 69.2563 49.0499 69.2438 48.793 69.231C47.7235 69.1014 46.736 68.8607 45.7031 68.5547C45.1752 69.1884 45.1752 69.1884 44.8242 70.0195C45.104 70.8283 45.104 70.8283 45.6482 71.5942C46.4258 72.9019 46.8869 73.7383 46.582 75.2929C45.6889 77.0112 44.5068 77.7229 42.8284 78.6255C42.4848 78.8232 42.4848 78.8232 42.1343 79.0249C40.7365 79.7932 39.7203 80.177 38.086 79.9804C36.2395 79.1514 35.4915 77.5905 34.5703 75.8789C33.9903 75.9756 33.4102 76.0722 32.8125 76.1718C32.7449 76.4332 32.6773 76.6945 32.6077 76.9638C32.5121 77.3067 32.4166 77.6496 32.3181 78.0029C32.2264 78.3428 32.1346 78.6827 32.04 79.0329C31.5725 80.1421 31.2096 80.5451 30.1758 81.1523C28.4463 81.6274 27.1168 81.2859 25.4517 80.7861C25.2217 80.7223 24.9917 80.6585 24.7547 80.5927C21.9081 79.7718 21.9081 79.7718 21.0022 78.6071C20.4348 76.6986 20.9012 74.822 21.3867 72.9492C20.7612 72.4172 20.7612 72.4172 19.9219 72.0703C19.0484 72.3613 19.0484 72.3613 18.2007 72.9126C16.5272 73.8243 16.5272 73.8243 15.2527 73.8647C13.192 73.1077 12.3365 71.6314 11.3159 69.7998C11.1804 69.5732 11.0448 69.3466 10.9051 69.1131C9.99857 67.5003 9.80974 66.5523 10.2539 64.7461C11.1083 63.2153 12.5459 62.5779 14.0625 61.8164C14.0625 61.1396 14.0625 60.4629 14.0625 59.7656C13.7442 59.7276 13.7442 59.7276 13.4194 59.6889C11.5242 59.4135 10.4112 59.114 9.08205 57.7148C8.07821 55.7071 9.07407 53.1378 9.61878 51.1093C10.0912 49.7125 10.4821 48.8713 11.7188 48.0468C13.5773 47.8697 15.4459 48.0622 17.2852 48.3398C17.7306 47.7568 17.7306 47.7568 17.8711 46.875C17.5859 46.2607 17.5859 46.2607 17.1753 45.6299C16.4684 44.4626 16.2372 43.6111 16.2117 42.2573C16.7866 40.3196 18.4965 39.3356 20.1599 38.4155C20.3573 38.2977 20.5546 38.1798 20.7579 38.0584C22.2121 37.2402 23.2354 37.0117 24.9024 37.207C26.146 37.734 26.6771 38.4101 27.3377 39.5691C27.4876 39.8262 27.6375 40.0834 27.792 40.3484C28.125 41.0156 28.125 41.0156 28.125 41.6015C28.8018 41.5049 29.4785 41.4082 30.1758 41.3086C30.224 41.0219 30.224 41.0219 30.2731 40.7295C30.9222 37.1513 30.9222 37.1513 32.4097 36.0534C34.4942 35.3972 36.4502 36.1131 38.4705 36.7126ZM34.5703 39.8437C34.4434 40.1942 34.3165 40.5446 34.1858 40.9057C33.1249 43.6936 33.1249 43.6936 32.1533 44.4763C30.5021 45.1893 28.7253 45.2315 26.9531 45.1172C25.7191 44.5372 25.1767 43.8984 24.5178 42.7185C24.3679 42.4545 24.218 42.1905 24.0635 41.9185C23.9536 41.7172 23.8437 41.516 23.7305 41.3086C22.5349 41.7607 21.5579 42.3338 20.5078 43.0664C20.7982 44.0044 21.0894 44.8167 21.5882 45.6665C22.0885 46.8577 22.1317 47.7331 21.6797 48.9257C19.76 51.9013 19.76 51.9013 18.1641 52.4414C17.4706 52.4448 17.4706 52.4448 16.7359 52.3498C16.4949 52.3207 16.254 52.2917 16.0057 52.2617C15.1609 52.1376 14.3188 51.9958 13.4766 51.8554C13.0415 53.7407 13.0415 53.7407 12.5977 55.664C13.2019 55.8272 13.8062 55.9903 14.4287 56.1584C15.9607 56.5721 16.709 56.9532 17.5781 58.3007C18.0901 60.0926 18.2227 62.6724 17.5781 64.4531C16.9556 64.7461 16.9556 64.7461 16.1133 65.039C15.4175 65.4107 14.7427 65.8108 14.0625 66.2109C14.5214 67.4729 15.1416 68.5727 15.8203 69.7265C15.9978 69.6208 16.1753 69.515 16.3582 69.4061C18.1126 68.4344 19.6657 67.7795 21.6797 68.2617C22.3758 68.6656 22.9545 69.102 23.5565 69.635C23.998 70.0816 23.998 70.0816 24.6094 70.0195C25.692 72.117 25.2397 74.2982 24.6094 76.4648C25.0789 76.6128 25.549 76.7589 26.0193 76.9043C26.281 76.9858 26.5427 77.0674 26.8124 77.1515C27.5554 77.3812 27.5554 77.3812 28.418 77.3437C28.489 77.1035 28.56 76.8633 28.6331 76.6159C28.7313 76.3002 28.8295 75.9844 28.9307 75.6591C29.0259 75.3464 29.121 75.0337 29.2191 74.7116C29.6152 73.7678 29.965 73.2901 30.7617 72.6562C32.4803 71.9596 34.8648 71.6743 36.6406 72.2751C37.3941 72.782 37.6872 73.3472 38.1226 74.1394C38.649 75.2008 38.649 75.2008 39.5508 75.8789C40.2792 75.5206 40.2792 75.5206 41.0523 75.0183C41.3189 74.8525 41.5855 74.6867 41.8602 74.5159C42.0649 74.3856 42.2696 74.2553 42.4805 74.1211C42.3747 73.9402 42.269 73.7593 42.1601 73.5729C41.2583 71.9272 40.4673 70.4382 41.0156 68.5547C41.8745 67.035 42.8189 65.3653 44.5313 64.7461C46.1746 64.6172 47.6383 64.9306 49.2188 65.332C49.3597 64.9172 49.5 64.5021 49.6399 64.0869C49.7181 63.8558 49.7963 63.6246 49.8768 63.3865C50.0741 62.769 50.2417 62.154 50.3906 61.5234C49.9986 61.4169 49.9986 61.4169 49.5987 61.3083C49.2558 61.2101 48.9129 61.1119 48.5596 61.0107C48.2197 60.9155 47.8798 60.8204 47.5296 60.7223C46.5282 60.3305 46.0541 60.0331 45.4102 59.1797C44.8156 57.3231 44.4022 55.0983 45.2454 53.302C46.2206 52.184 47.3097 51.6155 48.6328 50.9765C48.4481 50.0336 48.1113 49.3629 47.5891 48.5595C47.4558 48.3526 47.3225 48.1456 47.1852 47.9324C47.0828 47.7768 46.9805 47.6212 46.875 47.4609C46.6941 47.5666 46.5132 47.6724 46.3268 47.7813C44.6725 48.6878 43.2012 49.4612 41.3086 48.9257C39.8829 48.2053 38.5322 47.3737 37.7312 45.9526C37.2432 44.1973 37.6646 42.4565 38.086 40.7226C37.6654 40.5745 37.2441 40.4284 36.8225 40.2832C36.588 40.2016 36.3535 40.12 36.1119 40.036C35.4235 39.8029 35.4235 39.8029 34.5703 39.8437Z" fill="#4D5CFF"/>
<path d="M119.778 89.8942C119.988 89.8927 120.197 89.8913 120.413 89.8898C121.11 89.8855 121.807 89.8835 122.503 89.8819C122.986 89.8802 123.469 89.8785 123.952 89.8768C124.966 89.8738 125.98 89.872 126.994 89.871C128.293 89.8694 129.593 89.8624 130.892 89.854C131.89 89.8486 132.888 89.8471 133.886 89.8466C134.365 89.8457 134.844 89.8434 135.323 89.8395C135.994 89.8345 136.664 89.8351 137.335 89.837C137.716 89.8359 138.098 89.8348 138.491 89.8337C139.558 89.9532 139.896 90.0479 140.625 90.8203C140.742 91.5767 140.782 92.2097 140.772 92.9666C140.774 93.297 140.774 93.297 140.777 93.634C140.781 94.3743 140.776 95.1143 140.772 95.8546C140.773 96.3844 140.775 96.9142 140.777 97.4439C140.781 98.8846 140.778 100.325 140.773 101.766C140.769 103.271 140.771 104.777 140.772 106.283C140.772 108.812 140.768 111.341 140.762 113.87C140.754 116.796 140.753 119.722 140.757 122.648C140.76 125.46 140.758 128.271 140.754 131.083C140.752 132.281 140.752 133.479 140.754 134.677C140.755 136.087 140.752 137.497 140.746 138.908C140.744 139.426 140.744 139.944 140.746 140.463C140.747 141.169 140.744 141.874 140.739 142.58C140.74 142.787 140.742 142.993 140.744 143.206C140.733 144.036 140.713 144.598 140.238 145.293C139.424 145.81 138.545 145.725 137.612 145.715C137.287 145.716 137.287 145.716 136.956 145.718C136.241 145.72 135.526 145.716 134.81 145.712C134.314 145.712 133.817 145.712 133.321 145.712C132.28 145.712 131.24 145.709 130.199 145.704C128.863 145.697 127.528 145.697 126.192 145.699C125.167 145.7 124.142 145.698 123.117 145.695C122.624 145.694 122.132 145.694 121.639 145.694C120.952 145.694 120.264 145.691 119.577 145.686C119.27 145.687 119.27 145.687 118.957 145.688C117.547 145.672 117.547 145.672 116.895 145.02C116.502 143.952 116.563 142.862 116.56 141.737C116.56 141.524 116.559 141.311 116.558 141.092C116.555 140.378 116.555 139.664 116.554 138.951C116.553 138.439 116.552 137.928 116.55 137.416C116.546 136.026 116.544 134.637 116.543 133.247C116.542 132.379 116.541 131.511 116.54 130.643C116.536 127.927 116.533 125.212 116.532 122.496C116.53 119.361 116.525 116.225 116.517 113.089C116.51 110.666 116.507 108.242 116.507 105.819C116.507 104.371 116.505 102.924 116.5 101.476C116.495 100.115 116.494 98.7534 116.497 97.3921C116.497 96.8924 116.496 96.3928 116.493 95.8931C116.489 95.2111 116.491 94.5293 116.494 93.8472C116.493 93.4656 116.493 93.0839 116.493 92.6906C116.752 90.3276 117.614 89.9056 119.778 89.8942ZM120.41 93.75C120.41 109.702 120.41 125.654 120.41 142.09C125.824 142.09 131.238 142.09 136.816 142.09C136.816 126.138 136.816 110.186 136.816 93.75C131.402 93.75 125.988 93.75 120.41 93.75Z" fill="#4D5CFF"/>
<path d="M53.6321 99.8551C53.8451 99.8537 54.0581 99.8522 54.2775 99.8507C54.9835 99.8464 55.6894 99.8445 56.3954 99.8428C56.885 99.8411 57.3747 99.8395 57.8644 99.8378C58.8917 99.8347 59.9189 99.833 60.9462 99.832C62.2637 99.8304 63.5812 99.8233 64.8987 99.815C65.9103 99.8095 66.9219 99.808 67.9335 99.8075C68.4193 99.8067 68.9051 99.8043 69.3909 99.8005C70.0699 99.7955 70.7487 99.796 71.4277 99.7979C71.8143 99.7968 72.2009 99.7958 72.5993 99.7947C73.5352 99.9023 73.5352 99.9023 74.0261 100.238C74.5826 101.017 74.5247 101.597 74.5257 102.549C74.5282 102.919 74.5306 103.289 74.5332 103.67C74.5315 104.08 74.5297 104.491 74.5278 104.901C74.529 105.333 74.5306 105.764 74.5325 106.196C74.5365 107.369 74.5349 108.542 74.5321 109.715C74.5299 110.942 74.532 112.168 74.5334 113.395C74.535 115.455 74.5328 117.515 74.5287 119.575C74.5239 121.958 74.5254 124.341 74.5303 126.724C74.5343 128.768 74.5348 130.812 74.5325 132.857C74.5311 134.079 74.531 135.3 74.5339 136.522C74.5364 137.67 74.5347 138.819 74.5296 139.967C74.5284 140.389 74.5287 140.811 74.5307 141.233C74.5331 141.808 74.5295 142.383 74.5257 142.958C74.5254 143.281 74.525 143.603 74.5247 143.935C74.4141 144.727 74.4141 144.727 74.0267 145.269C73.2229 145.819 72.3456 145.732 71.4054 145.728C71.1895 145.731 70.9737 145.733 70.7512 145.736C70.0373 145.743 69.3236 145.743 68.6096 145.743C68.1138 145.745 67.618 145.747 67.1221 145.75C66.0828 145.753 65.0436 145.754 64.0042 145.752C62.6712 145.751 61.3384 145.759 60.0054 145.771C58.9815 145.779 57.9577 145.78 56.9337 145.779C56.4422 145.779 55.9506 145.782 55.4591 145.787C54.7723 145.794 54.0861 145.791 53.3993 145.786C53.1956 145.79 52.992 145.793 52.7821 145.797C52.2146 145.788 52.2146 145.788 51.2695 145.605C50.4273 144.523 50.2808 143.7 50.281 142.349C50.279 141.988 50.2769 141.628 50.2748 141.257C50.277 140.86 50.2792 140.463 50.2816 140.066C50.2809 139.647 50.2798 139.227 50.2783 138.807C50.2756 137.669 50.2783 136.531 50.2822 135.393C50.2855 134.202 50.2843 133.011 50.2838 131.82C50.2835 129.82 50.2868 127.82 50.2922 125.82C50.2984 123.507 50.2994 121.195 50.2976 118.883C50.2959 116.658 50.2975 114.433 50.3008 112.208C50.3022 111.261 50.3024 110.315 50.3018 109.368C50.3013 108.253 50.3037 107.139 50.3083 106.024C50.3095 105.615 50.3098 105.206 50.309 104.797C50.308 104.239 50.311 103.68 50.3143 103.122C50.3149 102.81 50.3155 102.497 50.3161 102.175C50.3915 101.358 50.5286 100.877 50.9766 100.195C51.8531 99.7571 52.6545 99.8602 53.6321 99.8551ZM54.1992 103.711C54.1992 116.376 54.1992 129.041 54.1992 142.09C59.6133 142.09 65.0274 142.09 70.6055 142.09C70.6055 129.425 70.6055 116.76 70.6055 103.711C65.1914 103.711 59.7774 103.711 54.1992 103.711Z" fill="#4D5CFF"/>
<path d="M90.5273 22.2657C90.7157 22.4006 90.9042 22.5354 91.0984 22.6743C94.4331 25.2747 96.6112 29.5648 97.2656 33.6915C97.7487 39.2141 96.4537 44.3114 92.8505 48.6272C90.8296 50.7422 88.5243 52.1851 85.8398 53.3204C85.6045 53.4205 85.3692 53.5206 85.1268 53.6237C80.7811 55.1186 75.6174 54.4821 71.521 52.6509C67.5513 50.6716 64.3028 47.2127 62.6953 43.0665C61.0835 38.0312 61.0324 33.2835 63.2812 28.3815C65.7097 23.8121 69.6293 20.7937 74.4907 19.106C80.1378 17.5597 85.8691 18.8281 90.5273 22.2657ZM70.3125 25.7814C70.1165 25.943 69.9204 26.1046 69.7185 26.2712C67.0819 28.6395 65.5575 32.1155 65.2702 35.6164C65.1331 39.3169 66.2476 42.7703 68.6313 45.6151C71.4597 48.5856 74.542 50.3542 78.6654 50.5087C82.8279 50.5702 86.2935 49.3995 89.4298 46.573C92.4754 43.3829 93.6202 39.7258 93.5474 35.4139C93.2571 31.7654 91.6686 28.5426 89.0441 26.0011C83.4886 21.4326 75.8725 20.9739 70.3125 25.7814Z" fill="#4D5CFF"/>
<path d="M86.3862 115.09C86.6964 115.087 86.6964 115.087 87.0128 115.085C87.6983 115.081 88.3838 115.079 89.0694 115.077C89.5452 115.076 90.0211 115.074 90.4969 115.072C91.4954 115.069 92.4938 115.067 93.4922 115.066C94.7717 115.065 96.051 115.058 97.3304 115.049C98.3136 115.044 99.2968 115.042 100.28 115.042C100.752 115.041 101.223 115.039 101.695 115.035C102.355 115.03 103.015 115.03 103.675 115.032C104.05 115.031 104.426 115.03 104.813 115.029C105.762 115.137 105.762 115.137 106.469 115.413C107.244 116.418 107.094 117.504 107.081 118.737C107.083 119.155 107.083 119.155 107.085 119.582C107.089 120.505 107.084 121.428 107.079 122.351C107.079 122.991 107.079 123.632 107.08 124.272C107.081 125.615 107.077 126.958 107.07 128.3C107.062 130.023 107.063 131.746 107.067 133.47C107.069 134.792 107.066 136.115 107.063 137.437C107.061 138.072 107.061 138.708 107.062 139.343C107.063 140.231 107.058 141.118 107.052 142.005C107.053 142.269 107.055 142.533 107.056 142.805C107.053 143.046 107.05 143.288 107.047 143.537C107.046 143.747 107.046 143.956 107.045 144.172C106.899 144.901 106.641 145.161 106.055 145.605C105.321 145.695 104.659 145.732 103.925 145.728C103.601 145.732 103.601 145.732 103.271 145.736C102.557 145.743 101.843 145.743 101.129 145.743C100.633 145.745 100.137 145.747 99.6416 145.75C98.6023 145.753 97.5631 145.754 96.5238 145.752C95.1907 145.751 93.858 145.759 92.5249 145.771C91.501 145.779 90.4772 145.78 89.4532 145.779C88.9617 145.779 88.4701 145.782 87.9786 145.787C87.2918 145.794 86.6056 145.791 85.9188 145.786C85.7152 145.79 85.5115 145.793 85.3017 145.797C84.3517 145.781 83.8979 145.717 83.2236 145.027C82.7994 143.828 82.7873 142.76 82.7964 141.496C82.7949 141.233 82.7934 140.969 82.7918 140.698C82.7879 139.828 82.7905 138.959 82.7934 138.089C82.7928 137.484 82.792 136.878 82.7909 136.273C82.7896 135.005 82.7915 133.738 82.7956 132.47C82.8006 130.845 82.7977 129.221 82.7924 127.596C82.7893 126.347 82.7903 125.097 82.7926 123.847C82.7931 123.248 82.7924 122.649 82.7904 122.05C82.7881 121.213 82.7915 120.376 82.7964 119.539C82.7947 119.291 82.7929 119.044 82.791 118.79C82.8057 117.431 82.9059 116.532 83.7891 115.43C84.6517 114.998 85.4231 115.095 86.3862 115.09ZM86.7188 118.945C86.7188 126.583 86.7188 134.221 86.7188 142.09C92.1328 142.09 97.5469 142.09 103.125 142.09C103.125 134.452 103.125 126.814 103.125 118.945C97.7109 118.945 92.2969 118.945 86.7188 118.945Z" fill="#4D5CFF"/>
<path d="M20.7612 115.09C21.0714 115.087 21.0714 115.087 21.3878 115.085C22.0733 115.081 22.7588 115.079 23.4444 115.077C23.9202 115.076 24.3961 115.074 24.8719 115.072C25.8704 115.069 26.8688 115.067 27.8672 115.066C29.1467 115.065 30.426 115.058 31.7054 115.049C32.6886 115.044 33.6718 115.042 34.655 115.042C35.1267 115.041 35.5983 115.039 36.07 115.035C36.73 115.03 37.3898 115.03 38.0498 115.032C38.4253 115.031 38.8009 115.03 39.1878 115.029C40.1367 115.137 40.1367 115.137 40.8439 115.413C41.619 116.418 41.4688 117.504 41.4556 118.737C41.458 119.155 41.458 119.155 41.4604 119.582C41.4641 120.505 41.4592 121.428 41.4539 122.351C41.454 122.991 41.4544 123.632 41.4552 124.272C41.4556 125.615 41.452 126.958 41.4453 128.3C41.437 130.023 41.4378 131.746 41.4415 133.47C41.4435 134.792 41.4413 136.115 41.4376 137.437C41.4363 138.072 41.4362 138.708 41.4373 139.343C41.4382 140.231 41.4334 141.118 41.427 142.005C41.4283 142.269 41.4296 142.533 41.431 142.805C41.4281 143.046 41.4252 143.288 41.4222 143.537C41.4215 143.747 41.4208 143.956 41.42 144.172C41.2736 144.901 41.0165 145.161 40.4297 145.605C39.6959 145.695 39.0342 145.732 38.2999 145.728C37.9761 145.732 37.9761 145.732 37.6458 145.736C36.9318 145.743 36.2181 145.743 35.5042 145.743C35.0083 145.745 34.5125 145.747 34.0166 145.75C32.9773 145.753 31.9381 145.754 30.8988 145.752C29.5657 145.751 28.233 145.759 26.8999 145.771C25.876 145.779 24.8522 145.78 23.8282 145.779C23.3367 145.779 22.8451 145.782 22.3536 145.787C21.6668 145.794 20.9806 145.791 20.2938 145.786C20.0902 145.79 19.8865 145.793 19.6767 145.797C18.7267 145.781 18.2729 145.717 17.5986 145.027C17.1744 143.828 17.1623 142.76 17.1714 141.496C17.1699 141.233 17.1684 140.969 17.1668 140.698C17.1629 139.828 17.1655 138.959 17.1684 138.089C17.1678 137.484 17.167 136.878 17.1659 136.273C17.1646 135.005 17.1665 133.738 17.1706 132.47C17.1756 130.845 17.1727 129.221 17.1674 127.596C17.1643 126.347 17.1653 125.097 17.1676 123.847C17.1681 123.248 17.1674 122.649 17.1654 122.05C17.1631 121.213 17.1665 120.376 17.1714 119.539C17.1697 119.291 17.1679 119.044 17.166 118.79C17.1807 117.431 17.2809 116.532 18.1641 115.43C19.0267 114.998 19.7981 115.095 20.7612 115.09ZM21.0938 118.945C21.0938 126.583 21.0938 134.221 21.0938 142.09C26.5078 142.09 31.9219 142.09 37.5 142.09C37.5 134.452 37.5 126.814 37.5 118.945C32.0859 118.945 26.6719 118.945 21.0938 118.945Z" fill="#4D5CFF"/>
<path d="M37.2082 49.7247C39.5823 51.2393 41.0498 53.3204 41.7561 56.0567C42.2424 58.7938 41.9798 61.3698 40.7227 63.8673C38.9397 66.3788 36.5253 68.4464 33.4248 69C30.0726 69.3115 27.3771 68.859 24.6643 66.7809C22.572 64.9203 21.2605 62.6113 20.9816 59.8115C20.8414 56.5982 21.4811 54.0325 23.5325 51.5077C27.1664 47.5773 32.7044 47.0239 37.2082 49.7247ZM25.8911 54.7566C24.7253 56.5352 24.6895 58.2801 24.9024 60.3516C25.4069 62.1675 26.5508 63.4534 28.125 64.4532C29.8909 65.3378 31.4824 65.5136 33.3984 65.0391C35.5726 64.1611 36.764 62.9956 37.793 60.9376C38.3516 59.0679 38.3041 57.3982 37.5 55.6092C36.4852 53.7659 35.1631 52.7775 33.2153 52.0387C30.1725 51.4752 27.8577 52.3788 25.8911 54.7566Z" fill="#4D5CFF"/>
<path d="M88.4766 29.5899C89.0625 30.0476 89.0625 30.0476 89.3555 30.7618C89.3753 32.2177 89.0826 32.9079 88.0973 33.982C87.6732 34.4077 87.2443 34.8287 86.8114 35.2456C86.5857 35.4696 86.3599 35.6935 86.1272 35.9243C85.4068 36.6369 84.6804 37.343 83.9539 38.0494C83.4658 38.5311 82.978 39.0133 82.4907 39.4959C81.5999 40.3743 80.7087 41.2523 79.8117 42.1245C79.6318 42.2998 79.4518 42.4751 79.2664 42.6557C78.6305 43.2262 78.2658 43.3538 77.4093 43.466C76.1392 43.3227 75.7267 42.844 74.8295 41.9472C74.6831 41.8018 74.5367 41.6564 74.3859 41.5066C74.0783 41.1989 73.7728 40.889 73.4694 40.5771C73.006 40.1021 72.5347 39.6363 72.0617 39.1709C71.7631 38.87 71.465 38.5687 71.1674 38.2668C70.8978 37.9937 70.6282 37.7206 70.3505 37.4392C69.6611 36.5353 69.486 35.9894 69.4336 34.8633C69.7266 34.1675 69.7266 34.1675 70.3125 33.6914C71.2463 33.49 71.2463 33.49 72.3633 33.6914C73.2484 34.2719 73.9646 34.9916 74.707 35.7422C74.9495 35.9809 75.1919 36.2196 75.4417 36.4655C76.0808 37.0985 76.7143 37.7364 77.3438 38.3789C78.6728 37.3029 79.8776 36.1445 81.0608 34.9114C81.3652 34.5966 81.6696 34.2819 81.974 33.9672C82.4452 33.4797 82.9146 32.9909 83.3797 32.4974C83.8349 32.0155 84.2964 31.5405 84.7595 31.0662C84.9647 30.8437 84.9647 30.8437 85.174 30.6168C86.2399 29.5422 86.9949 29.4029 88.4766 29.5899Z" fill="#4D5CFF"/>
</svg>
