<svg width="100" height="100" viewBox="0 0 100 100" fill="none" xmlns="http://www.w3.org/2000/svg">
<g clip-path="url(#clip0_203_390)">
<path d="M48.6323 -0.0991241C48.8722 -0.101327 49.1121 -0.10353 49.3592 -0.1058C49.6245 -0.104281 49.8897 -0.102681 50.155 -0.101008C50.4348 -0.102066 50.7146 -0.103458 50.9943 -0.105156C51.7538 -0.108718 52.5132 -0.107337 53.2727 -0.10486C54.0673 -0.102882 54.862 -0.104716 55.6567 -0.105943C56.9912 -0.107364 58.3257 -0.105491 59.6603 -0.101771C61.2033 -0.0975188 62.7463 -0.098896 64.2893 -0.103197C65.614 -0.106742 66.9386 -0.107243 68.2633 -0.105198C69.0545 -0.10398 69.8457 -0.103819 70.637 -0.106399C71.3809 -0.108655 72.1246 -0.107091 72.8685 -0.102575C73.1415 -0.101542 73.4146 -0.101839 73.6876 -0.103562C74.0602 -0.105695 74.4328 -0.102546 74.8054 -0.0991241C75.014 -0.0988296 75.2225 -0.098535 75.4374 -0.0982315C76.1122 0.0247976 76.3383 0.24917 76.7579 0.781332C77.0416 1.56146 76.9868 1.87732 76.6488 2.64138C76.1036 3.6874 75.4456 4.65888 74.7926 5.63973C73.8916 7.00646 73.002 8.3765 72.1559 9.77791C71.038 11.6272 69.8765 13.4476 68.7124 15.2681C68.1298 16.1798 67.5488 17.0926 66.9679 18.0055C66.8544 18.1837 66.7409 18.362 66.624 18.5457C65.6016 20.1527 64.5841 21.7628 63.568 23.3738C62.9855 24.2973 62.4023 25.2203 61.819 26.1434C61.3155 26.9404 60.8125 27.7377 60.3105 28.5355C60.207 28.6998 60.1035 28.8641 59.9969 29.0334C59.8014 29.3438 59.6061 29.6543 59.411 29.9649C58.9411 30.7104 58.4636 31.4497 57.9739 32.1823C57.87 32.3377 57.7662 32.4932 57.6592 32.6534C57.5809 32.7704 57.5026 32.8874 57.422 33.0079C57.667 33.009 57.9119 33.0102 58.1643 33.0114C60.472 33.0225 62.7798 33.0367 65.0875 33.0539C66.2739 33.0627 67.4603 33.0703 68.6468 33.0756C69.7916 33.0806 70.9364 33.0885 72.0812 33.0984C72.5181 33.1016 72.9551 33.1039 73.392 33.1051C74.0037 33.107 74.6152 33.1124 75.2268 33.1188C75.4078 33.1185 75.5887 33.1182 75.7752 33.1179C76.7185 33.1317 77.359 33.1756 78.1251 33.7891C78.5539 34.3153 78.5145 34.608 78.4913 35.2982C78.3595 36.2483 77.9151 36.7587 77.2706 37.439C77.0561 37.677 76.8417 37.915 76.6275 38.1532C76.5186 38.272 76.4097 38.3908 76.2976 38.5133C75.8065 39.055 75.3361 39.6135 74.8658 40.1734C74.777 40.2785 74.6881 40.3835 74.5966 40.4918C74.0446 41.1451 73.501 41.8047 72.9615 42.4683C72.0999 43.5266 71.2124 44.5612 70.3225 45.5956C69.1028 47.0138 67.8915 48.4387 66.7115 49.8902C65.8499 50.9485 64.9624 51.983 64.0725 53.0175C62.8528 54.4357 61.6415 55.8605 60.4615 57.3121C59.5999 58.3703 58.7124 59.4049 57.8225 60.4394C56.6028 61.8576 55.3915 63.2824 54.2115 64.734C53.3499 65.7922 52.4624 66.8268 51.5725 67.8613C50.3528 69.2794 49.1415 70.7043 47.9615 72.1558C47.0999 73.2141 46.2124 74.2487 45.3225 75.2831C44.1028 76.7013 42.8915 78.1262 41.7115 79.5777C40.8499 80.636 39.9624 81.6705 39.0725 82.705C37.8528 84.1232 36.6415 85.548 35.4615 86.9996C34.5999 88.0578 33.7124 89.0924 32.8225 90.1269C31.6028 91.5451 30.3915 92.9699 29.2115 94.4215C28.2428 95.6111 27.2443 96.7745 26.2414 97.9354C26.0059 98.2084 25.7715 98.4824 25.5372 98.7565C25.3559 98.9672 25.3559 98.9672 25.171 99.1822C25.0698 99.3003 24.9686 99.4184 24.8643 99.54C24.4071 100.015 24.0003 100.046 23.3644 100.073C22.6766 100.063 22.5167 100.045 21.9606 99.5973C21.5353 98.7282 21.5406 98.07 21.844 97.1684C22.0943 96.56 22.3607 95.9608 22.6319 95.3614C22.8491 94.8685 23.0657 94.3754 23.282 93.8821C23.3405 93.7492 23.3991 93.6163 23.4594 93.4794C24.1557 91.8962 24.8206 90.2999 25.4862 88.7036C25.7107 88.1653 25.9355 87.6272 26.1604 87.0891C26.4674 86.3548 26.7741 85.6205 27.0808 84.8862C27.7458 83.2944 28.4121 81.7032 29.0784 80.112C29.4445 79.2376 29.8106 78.3632 30.1767 77.4888C30.2492 77.3155 30.3218 77.1422 30.3965 76.9636C30.8343 75.9179 31.2717 74.872 31.7089 73.8261C33.454 69.6515 35.2056 65.4798 36.9691 61.313C38.0669 58.7178 39.1529 56.1178 40.2345 53.5157C40.0238 53.5166 39.8131 53.5174 39.596 53.5183C37.6102 53.5263 35.6244 53.5321 33.6386 53.5359C32.6176 53.538 31.5967 53.5407 30.5758 53.5452C29.5906 53.5494 28.6053 53.5518 27.6201 53.5528C27.2442 53.5535 26.8683 53.5549 26.4924 53.557C25.9659 53.5598 25.4395 53.5602 24.913 53.5601C24.7576 53.5615 24.6022 53.5629 24.4421 53.5643C23.3398 53.5602 22.6197 53.4511 21.8019 52.6978C21.4597 52.1055 21.4506 51.8516 21.5661 51.1926C21.8072 50.3202 22.2399 49.5286 22.6471 48.724C22.7488 48.5192 22.8505 48.3144 22.9553 48.1034C23.237 47.5372 23.5204 46.9719 23.8046 46.4069C24.111 45.7967 24.4152 45.1853 24.7197 44.5741C25.3161 43.3777 25.9146 42.1824 26.5138 40.9874C27.0007 40.0163 27.4869 39.0448 27.9725 38.0729C28.0416 37.9346 28.1107 37.7962 28.182 37.6537C28.3224 37.3726 28.4628 37.0915 28.6033 36.8104C29.8448 34.3257 31.0883 31.842 32.3328 29.3588C33.5404 26.9492 34.7463 24.5388 35.9504 22.1275C37.2619 19.5013 38.5743 16.8757 39.8884 14.2509C40.0285 13.971 40.1686 13.6912 40.3087 13.4113C40.3777 13.2736 40.4466 13.1359 40.5176 12.9941C41.0034 12.0236 41.4885 11.0529 41.9733 10.0819C42.564 8.89895 43.1559 7.71654 43.7492 6.53484C44.0519 5.93189 44.3541 5.3287 44.6549 4.72483C44.9812 4.07058 45.3094 3.41732 45.6381 2.76427C45.7329 2.57293 45.8278 2.3816 45.9255 2.18446C46.0141 2.00958 46.1026 1.83469 46.1938 1.65451C46.2693 1.50366 46.3449 1.35281 46.4227 1.19739C47.0266 0.220063 47.4844 -0.0975028 48.6323 -0.0991241ZM49.4142 3.51571C47.8946 6.39147 47.8946 6.39147 46.418 9.28802C46.2851 9.55337 46.2851 9.55337 46.1495 9.82409C45.861 10.4003 45.573 10.9768 45.285 11.5534C45.0751 11.9731 44.865 12.3928 44.655 12.8125C44.091 13.9396 43.5275 15.0669 42.9641 16.1942C42.6119 16.8991 42.2595 17.6038 41.907 18.3086C41.8188 18.485 41.8188 18.485 41.7288 18.665C41.6092 18.904 41.4897 19.143 41.3702 19.382C40.2559 21.61 39.1421 23.8382 38.0285 26.0666C37.0728 27.9787 36.1167 29.8907 35.1604 31.8025C34.0466 34.029 32.9331 36.2556 31.82 38.4824C31.7016 38.7194 31.5831 38.9563 31.4647 39.1933C31.4064 39.3099 31.3481 39.4264 31.2881 39.5465C30.8772 40.3685 30.4661 41.1904 30.0549 42.0122C29.5034 43.1147 28.9523 44.2174 28.4014 45.3202C28.1988 45.7258 27.9959 46.1314 27.793 46.5369C27.5173 47.0877 27.2421 47.6387 26.9671 48.1898C26.8856 48.3524 26.8041 48.515 26.7201 48.6825C26.3432 49.3141 26.3432 49.3141 26.172 50.0001C26.3905 50.0008 26.609 50.0015 26.8341 50.0022C28.8918 50.0094 30.9495 50.0207 33.0072 50.036C34.0651 50.0437 35.123 50.05 36.181 50.053C37.2017 50.056 38.2224 50.0627 39.2431 50.072C39.6328 50.0749 40.0224 50.0765 40.4121 50.0766C40.9574 50.0771 41.5025 50.0824 42.0478 50.0888C42.2094 50.0878 42.3709 50.0868 42.5374 50.0858C43.2343 50.0985 43.6684 50.1385 44.2476 50.5414C44.6632 51.1788 44.5661 51.54 44.4477 52.2648C44.266 53.0292 43.9858 53.7296 43.6715 54.448C43.6034 54.609 43.5352 54.7699 43.465 54.9358C43.2407 55.4643 43.0132 55.9914 42.7858 56.5186C42.6262 56.8933 42.4669 57.268 42.3078 57.6428C41.9773 58.421 41.6457 59.1987 41.3134 59.9761C40.6265 61.585 39.9528 63.1994 39.279 64.8139C38.9145 65.6868 38.5491 66.5592 38.1837 67.4317C38.0372 67.7817 37.8907 68.1316 37.7443 68.4815C37.4513 69.1814 37.1583 69.8813 36.8653 70.5811C36.7566 70.8409 36.7566 70.8409 36.6457 71.1059C36.499 71.4562 36.3524 71.8065 36.2057 72.1568C35.8418 73.0261 35.478 73.8955 35.1144 74.7649C34.4281 76.4057 33.7407 78.0459 33.0498 79.6848C32.7234 80.4593 32.3975 81.234 32.0717 82.0088C31.9162 82.3782 31.7603 82.7475 31.6042 83.1167C31.3878 83.6284 31.1724 84.1406 30.9571 84.6528C30.8934 84.8028 30.8297 84.9527 30.7641 85.1072C30.4071 85.9597 30.1186 86.8015 29.8829 87.6954C31.3263 86.2986 32.6216 84.7731 33.8838 83.2131C34.4589 82.5156 35.0503 81.8336 35.6446 81.1524C36.5226 80.1455 37.3802 79.126 38.2211 78.0877C38.8515 77.3207 39.5006 76.5702 40.1488 75.8182C40.7369 75.1344 41.3147 74.4438 41.8824 73.7428C42.6915 72.7457 43.5316 71.7782 44.3752 70.8105C45.1417 69.9293 45.8857 69.0326 46.6211 68.1252C47.3395 67.2506 48.0803 66.3954 48.8183 65.5373C50.0343 64.1235 51.2425 62.7035 52.4171 61.255C53.2309 60.2545 54.0747 59.2825 54.9221 58.3105C55.6881 57.4299 56.4318 56.5339 57.1664 55.6268C57.7968 54.8598 58.4459 54.1093 59.0941 53.3573C59.6823 52.6734 60.26 51.9829 60.8277 51.2818C61.6368 50.2848 62.4769 49.3172 63.3206 48.3496C64.087 47.4684 64.831 46.5717 65.5664 45.6643C66.2848 44.7897 67.0256 43.9345 67.7636 43.0764C68.6853 42.0047 69.5996 40.9269 70.5079 39.8438C70.5919 39.7437 70.6759 39.6436 70.7625 39.5405C71.004 39.2517 71.2443 38.9618 71.4845 38.672C71.6214 38.5068 71.7584 38.3416 71.8995 38.1715C72.2586 37.7047 72.5531 37.2257 72.8517 36.7188C72.4836 36.7171 72.4836 36.7171 72.108 36.7154C69.7974 36.7042 67.4867 36.69 65.1761 36.6728C63.9881 36.6641 62.8001 36.6564 61.6121 36.6512C60.466 36.6461 59.32 36.6382 58.1739 36.6284C57.7363 36.6251 57.2986 36.6229 56.861 36.6216C56.2488 36.6198 55.6368 36.6143 55.0246 36.608C54.843 36.6082 54.6613 36.6085 54.4742 36.6088C53.2503 36.5909 53.2503 36.5909 52.6287 36.2566C52.1714 35.7444 52.136 35.4568 52.1485 34.7657C52.7287 33.3116 53.6152 32.009 54.4801 30.713C54.7422 30.3156 55.0042 29.9181 55.2659 29.5205C55.3978 29.3205 55.5296 29.1205 55.6655 28.9144C56.2637 28.0017 56.8497 27.0813 57.4342 26.1597C57.5464 25.983 57.6586 25.8063 57.7741 25.6242C58.0002 25.2678 58.2263 24.9114 58.4522 24.5549C59.0113 23.6733 59.5716 22.7925 60.1319 21.9117C60.2996 21.6481 60.2996 21.6481 60.4707 21.3791C61.4721 19.8059 62.4776 18.2353 63.4833 16.6649C64.3375 15.3307 65.1899 13.9954 66.0401 12.6588C66.1506 12.4852 66.261 12.3116 66.3748 12.1328C66.9526 11.2244 67.5297 10.3156 68.1062 9.40636C68.3452 9.0297 68.5843 8.65306 68.8234 8.27645C68.9941 8.00721 68.9941 8.00721 69.1684 7.73252C69.9039 6.57621 70.6552 5.43376 71.4341 4.30611C71.7139 3.92907 71.7139 3.92907 71.6798 3.51571C64.3321 3.51571 56.9845 3.51571 49.4142 3.51571Z" fill="#4D5CFF"/>
</g>
<defs>
<clipPath id="clip0_203_390">
<rect width="100" height="100" fill="white"/>
</clipPath>
</defs>
</svg>
