<svg width="150" height="150" viewBox="0 0 150 150" fill="none" xmlns="http://www.w3.org/2000/svg">
<path d="M7.03126 0.70311C3.69142 1.64061 1.0547 4.45311 0.322276 7.91014C0.0586045 9.11131 1.07214e-05 23.1152 0.0586045 64.0137L0.146495 118.506L0.908214 120.117C1.31837 120.996 2.19728 122.256 2.84181 122.9C5.33204 125.391 8.20314 126.094 14.8535 125.918C18.3984 125.83 18.7793 125.771 19.3652 125.186C20.1563 124.424 20.2149 122.988 19.5117 122.197C19.0723 121.699 18.457 121.641 13.6817 121.523C7.91017 121.406 7.35353 121.26 5.80079 119.619C4.57032 118.33 4.39454 117.451 4.39454 112.471V107.812H44.3848H84.375V109.687V111.562L82.7637 111.68C81.0352 111.826 80.0098 112.383 78.9844 113.789C78.457 114.463 78.3399 115.107 78.252 118.096L78.1641 121.582H54.1992C30.5859 121.582 30.2637 121.582 29.7363 122.168C29.0039 122.988 29.0625 124.395 29.8535 125.186C30.4688 125.83 30.6152 125.83 41.4551 125.918L52.4414 126.006V129.756V133.506L48.2813 133.652C43.5059 133.799 42.0117 134.268 40.0488 136.172C38.3203 137.842 37.793 139.687 37.793 143.936C37.793 147.803 38.1152 148.77 39.6094 149.59C40.1367 149.912 47.3438 149.971 75.0586 150H109.834L110.83 149.033C112.09 147.861 112.354 146.455 112.119 142.5C111.885 138.574 110.947 136.729 108.223 134.971C106.758 134.004 104.414 133.594 100.576 133.594H97.5586V132.275V130.957H118.242H138.926L140.068 130.312C141.328 129.609 142.383 127.822 142.383 126.387C142.383 125.625 142.529 125.479 143.789 125.01C145.664 124.365 147.598 122.637 148.682 120.674L149.561 119.092L149.736 110.596C149.854 105.908 149.941 81.123 149.971 55.5176C150 6.15233 150.029 7.29491 148.682 5.09764C147.275 2.87108 145.254 1.34764 142.822 0.70311C140.742 0.146469 9.05274 0.146469 7.03126 0.70311ZM143.086 5.68358C145.342 7.3828 145.312 7.29491 145.312 17.0508V25.7812H75H4.68751V17.1387C4.68751 7.88084 4.71681 7.61717 6.21095 6.24022C7.99806 4.5703 2.63673 4.68748 75.3223 4.77538L142.002 4.83397L143.086 5.68358ZM145.312 66.7969V103.418H143.848H142.383V97.4121C142.383 90.7617 142.236 90.0293 140.654 88.7109C139.98 88.125 139.248 87.8613 137.988 87.7148L136.23 87.5098V85.4004V83.291L137.988 83.0859C139.248 82.9394 139.98 82.6758 140.654 82.0898C142.236 80.7715 142.383 80.0391 142.383 73.3301C142.383 66.5039 142.207 65.7715 140.361 64.541C139.395 63.8965 139.16 63.8672 132.129 63.8672C125.508 63.8672 124.805 63.9258 124.189 64.3945C123.311 65.1269 123.311 66.5918 124.189 67.4707C124.805 68.0859 125.068 68.1152 131.396 68.2031L137.988 68.291V73.5644V78.8086L110.391 78.75L82.7637 78.6621L82.6758 73.4766L82.6172 68.291L97.6758 68.2031L112.764 68.1152L113.408 67.4707C114.287 66.5918 114.287 65.1269 113.408 64.3945C112.764 63.8965 111.855 63.8672 97.002 63.8672H81.2988L80.2149 64.5996C78.3692 65.8301 78.1641 66.9141 78.2813 74.0625C78.3692 79.8047 78.3985 80.3027 78.9844 81.0644C79.8633 82.2363 81.1524 82.9101 82.8809 83.1152L84.375 83.291V85.4004V87.5098L82.6172 87.7148C81.1231 87.8906 80.6836 88.0957 79.7168 89.0039C78.252 90.4101 78.0762 91.4355 78.3106 98.2031L78.4863 103.418H41.4258H4.39454V66.7969V30.1758H74.8535H145.312V66.7969ZM131.836 85.4004V87.5976H110.303H88.7695V85.4004V83.2031H110.303H131.836V85.4004ZM137.988 97.2656V102.539H110.303H82.6172V97.4707C82.6172 94.6582 82.7051 92.2851 82.8223 92.1973C82.9102 92.0801 95.3906 91.9922 110.508 91.9922H137.988V97.2656ZM131.836 109.277V111.621H110.303H88.7695V109.277V106.934H110.303H131.836V109.277ZM145.312 112.646C145.312 118.066 145.02 119.15 143.262 120.41L142.383 121.025V118.066C142.383 115.693 142.266 114.902 141.797 113.965C141.064 112.529 139.424 111.621 137.549 111.621H136.23V109.717V107.812H140.771H145.312V112.646ZM137.988 121.289V126.562H110.303H82.6172V121.289V116.016H110.303H137.988V121.289ZM78.3692 127.148C78.4863 127.822 78.9258 128.76 79.336 129.258C80.625 130.781 81.4453 130.957 87.5977 130.957H93.1641V132.275V133.594H75H56.8359V129.785V125.977H67.5H78.1641L78.3692 127.148ZM105.439 138.516C107.168 139.365 107.666 140.332 107.783 143.145L107.871 145.605H75.0293H42.1875V143.262C42.1875 140.098 42.9492 138.721 44.9707 138.193C45.293 138.135 58.7988 138.047 75 138.018C102.48 137.988 104.502 138.018 105.439 138.516Z" fill="#4D5CFF"/>
<path d="M13.623 9.31633C11.1621 10.4882 9.87305 12.5097 9.87305 15.2343C9.87305 19.5116 13.8281 22.4706 17.9883 21.2695C23.2031 19.746 24.1699 12.8027 19.5996 9.75578C17.9883 8.70109 15.3516 8.52531 13.623 9.31633ZM17.5781 13.7695C18.6621 14.8534 18.1934 16.5234 16.6113 17.08C15.4395 17.5195 13.8281 15.9081 14.2676 14.7362C14.8242 13.1542 16.4941 12.6855 17.5781 13.7695Z" fill="#4D5CFF"/>
<path d="M30.0293 9.31633C25.1075 11.6308 24.9317 18.4863 29.7364 20.8593C32.168 22.0605 35.127 21.621 37.002 19.746C39.961 16.787 39.4922 12.0702 36.0059 9.75579C34.4239 8.7011 31.7579 8.52532 30.0293 9.31633ZM33.9844 13.7695C35.0684 14.8534 34.5997 16.5234 33.0176 17.08C31.8457 17.5195 30.2344 15.9081 30.6739 14.7363C31.2305 13.1542 32.9004 12.6855 33.9844 13.7695Z" fill="#4D5CFF"/>
<path d="M46.4356 9.31633C41.5137 11.6308 41.3379 18.4863 46.1426 20.8593C48.5743 22.0605 51.5332 21.621 53.4082 19.746C56.3672 16.787 55.8985 12.0702 52.4122 9.75579C50.8301 8.7011 48.1641 8.52532 46.4356 9.31633ZM50.3907 13.7695C51.6504 15.0292 50.7422 17.08 48.8965 17.08C47.2266 17.08 46.4063 15.3222 47.461 13.9745C48.2227 13.0077 49.5411 12.9199 50.3907 13.7695Z" fill="#4D5CFF"/>
<path d="M14.1504 41.0743C10.3125 44.8243 9.46287 46.0548 9.93162 47.2266C10.3711 48.2813 17.6074 55.3126 18.5156 55.5177C19.1601 55.6934 19.4824 55.547 20.2441 54.8145C21.5625 53.4962 21.2695 52.7931 17.9297 49.4532L15.0879 46.5821L17.7832 43.8868C19.248 42.3927 20.5957 40.8692 20.7715 40.5177C21.4746 39.1114 20.3613 37.5001 18.6621 37.5001C17.9883 37.5001 17.1093 38.1739 14.1504 41.0743Z" fill="#4D5CFF"/>
<path d="M28.5059 38.1444C27.7734 38.9647 22.5 52.4413 22.5 53.496C22.5 55.1952 24.873 56.1327 26.0449 54.9022C26.6309 54.3163 32.2266 40.2538 32.2266 39.4335C32.2266 39.1698 31.9043 38.6132 31.4941 38.2323C30.5859 37.2948 29.2969 37.2655 28.5059 38.1444Z" fill="#4D5CFF"/>
<path d="M33.7207 38.2618C32.6074 39.6973 32.8711 40.2539 36.0938 43.5352L39.0821 46.5821L36.0938 49.6289C33.1055 52.6465 32.7539 53.2911 33.3985 54.4629C33.5449 54.7559 34.043 55.1661 34.541 55.3418C35.8008 55.8692 36.5039 55.4004 40.6641 51.1817C45.4688 46.3184 45.4981 46.7871 40.1953 41.5137C36.7383 38.0567 36.0352 37.5 35.2442 37.5C34.5996 37.5 34.1309 37.7344 33.7207 38.2618Z" fill="#4D5CFF"/>
<path d="M49.4238 44.2969C48.6621 44.9122 48.3398 46.0841 48.75 46.9044C49.3652 48.1641 50.1855 48.3692 54.873 48.2813C59.0625 48.1934 59.2676 48.1641 59.7949 47.4903C60.5566 46.5528 60.498 45.3516 59.6777 44.5899C59.0332 43.9747 58.7109 43.9454 54.4629 43.9454C51.2695 43.9454 49.7754 44.0626 49.4238 44.2969Z" fill="#4D5CFF"/>
<path d="M65.5371 44.2676C64.1602 45.0879 64.3653 47.4023 65.8594 48.0176C66.416 48.252 73.5645 48.3398 90.3223 48.2812L114.023 48.1934L114.58 47.4902C115.342 46.5527 115.283 45.3516 114.463 44.5898L113.789 43.9453H89.9121C73.7988 43.9746 65.8887 44.0625 65.5371 44.2676Z" fill="#4D5CFF"/>
<path d="M49.4238 53.9648C48.6621 54.58 48.3398 55.7519 48.75 56.5722C49.4238 57.9492 49.9512 58.0078 58.9746 57.9492L67.4414 57.8613L67.998 57.1582C68.7598 56.2207 68.7012 55.0195 67.8808 54.2578C67.207 53.6132 67.0312 53.6132 58.5644 53.6132C52.0898 53.6132 49.8047 53.7011 49.4238 53.9648Z" fill="#4D5CFF"/>
<path d="M72.5683 53.9356C71.748 54.4043 71.3965 55.6348 71.8066 56.6016C72.2754 57.7735 73.623 58.0664 77.7539 57.9493C80.9765 57.8614 81.2402 57.8028 81.7676 57.1582C82.5293 56.2207 82.4707 55.0196 81.6504 54.2578C81.0058 53.6719 80.6836 53.6133 77.0215 53.6133C74.8242 53.6133 72.8613 53.7598 72.5683 53.9356Z" fill="#4D5CFF"/>
<path d="M86.0449 53.9355C84.6094 54.7852 84.8731 57.1289 86.4844 57.6855C87.0703 57.8906 90.8789 58.0078 96.7383 58.0078C104.355 58.0078 106.23 57.9199 106.904 57.5684C108.281 56.8652 108.545 55.2832 107.432 54.2578C106.758 53.6133 106.611 53.6133 96.6504 53.6133C90.1465 53.6426 86.3965 53.7305 86.0449 53.9355Z" fill="#4D5CFF"/>
<path d="M11.7187 64.7461C10.9277 65.5371 10.957 67.1191 11.748 67.8516C12.3046 68.3496 12.9785 68.4082 19.7461 68.4961C27.8906 68.584 28.7402 68.5254 29.5898 67.6172C30.3515 66.7969 30.3222 65.918 29.5605 64.9219L28.9746 64.1602H20.625C12.6855 64.1602 12.2753 64.1895 11.7187 64.7461Z" fill="#4D5CFF"/>
<path d="M34.5703 64.7461C33.7793 65.5371 33.8086 67.1191 34.5996 67.8516C35.1855 68.3789 35.8593 68.4082 49.1308 68.4082H63.0468L63.6035 67.7051C64.3652 66.7676 64.3066 65.5664 63.4863 64.8047C62.8125 64.1602 62.7832 64.1602 48.9843 64.1602C35.5371 64.1602 35.1269 64.1895 34.5703 64.7461Z" fill="#4D5CFF"/>
<path d="M87.1875 71.8359C86.1329 72.8027 86.045 74.0332 87.0118 75C87.5684 75.5566 87.9786 75.5859 93.6915 75.5859C99.4336 75.5859 99.8438 75.5566 100.43 75C101.367 74.1211 101.309 72.5977 100.313 71.8066C99.5801 71.2207 99.1407 71.1914 93.7208 71.1914C88.125 71.1914 87.8907 71.2207 87.1875 71.8359Z" fill="#4D5CFF"/>
<path d="M105.557 71.4844C104.209 72.041 103.887 73.916 104.971 74.9414C105.557 75.498 105.996 75.5859 108.193 75.5859C111.152 75.5859 111.914 75.1465 111.914 73.418C111.914 71.8066 110.859 71.1914 108.281 71.2207C107.139 71.2207 105.908 71.3379 105.557 71.4844Z" fill="#4D5CFF"/>
<path d="M116.396 71.4844C115.02 72.041 114.756 73.7695 115.869 74.8535L116.572 75.5859H124.805H133.037L133.74 74.8535C134.15 74.4727 134.473 73.9453 134.473 73.7109C134.473 72.8906 133.828 71.8359 133.096 71.5137C132.246 71.1328 117.363 71.1035 116.396 71.4844Z" fill="#4D5CFF"/>
<path d="M12.5977 73.4473C11.1036 74.0039 10.6055 75.9375 11.7188 77.0508C12.2461 77.5781 12.6856 77.6367 16.377 77.6367C20.4493 77.6367 20.4786 77.6367 21.0645 76.875C22.1192 75.5273 21.709 74.1504 20.0977 73.5352C19.2774 73.2422 13.3887 73.1543 12.5977 73.4473Z" fill="#4D5CFF"/>
<path d="M26.5137 73.5059C24.9903 74.1504 24.5801 76.1426 25.752 77.1094C26.3965 77.6074 27.1583 77.6367 36.6212 77.6367C45.9083 77.6367 46.8751 77.5781 47.4317 77.1094C48.3106 76.4062 48.3399 74.8828 47.4903 74.0332C46.8751 73.3887 46.6993 73.3887 36.9727 73.3301C31.5528 73.3008 26.836 73.3887 26.5137 73.5059Z" fill="#4D5CFF"/>
<path d="M53.1739 73.5938C51.709 74.3848 51.4161 75.9375 52.5293 76.9922C53.1446 77.5488 53.5254 77.6367 56.0157 77.6367C58.711 77.6367 58.8575 77.6074 59.4434 76.875C59.795 76.4355 60.0586 75.9082 60.0586 75.7031C60.0586 74.8535 59.3262 73.8281 58.5059 73.5352C57.3633 73.1543 53.9356 73.1836 53.1739 73.5938Z" fill="#4D5CFF"/>
<path d="M63.955 73.5352C62.6367 74.0625 62.2851 76.0547 63.2812 77.0508C63.8086 77.5781 64.248 77.6367 68.3496 77.6367C72.6855 77.6367 72.8613 77.6074 73.4765 76.9629C74.2675 76.1133 74.2968 75 73.5644 74.0918C73.0371 73.418 72.832 73.3887 68.789 73.3301C66.5039 73.3008 64.3066 73.3887 63.955 73.5352Z" fill="#4D5CFF"/>
<path d="M11.7187 83.2031C10.9277 83.9941 10.957 85.5762 11.748 86.3086C12.3046 86.8066 12.8906 86.8652 18.955 86.8652C25.5175 86.8652 25.5468 86.8652 26.1035 86.1621C26.8359 85.2832 26.8066 83.9355 26.0742 83.2031C25.5175 82.6465 25.1074 82.6172 18.8964 82.6172C12.6855 82.6172 12.2753 82.6465 11.7187 83.2031Z" fill="#4D5CFF"/>
<path d="M29.7364 83.2031C29.004 84.0234 29.0626 85.4297 29.8536 86.2207C30.4688 86.8652 30.6446 86.8652 38.6719 86.8652C46.6993 86.8652 46.8751 86.8652 47.4903 86.2207C48.3692 85.3418 48.3692 83.877 47.4903 83.1445C46.8751 82.6465 46.1426 82.6172 38.5255 82.6172C30.6153 82.6172 30.2344 82.6465 29.7364 83.2031Z" fill="#4D5CFF"/>
<path d="M52.1191 83.1446C51.2402 83.877 51.2402 85.3419 52.1191 86.2208C52.7344 86.8653 52.9102 86.8653 62.3437 86.9532C67.6172 87.0118 72.3633 86.9532 72.8906 86.8653C74.8535 86.5138 75.6445 84.5802 74.4141 83.2618C73.7988 82.6173 73.7402 82.6173 63.3105 82.6173C53.5254 82.6173 52.7637 82.6466 52.1191 83.1446Z" fill="#4D5CFF"/>
<path d="M87.2168 95.5663C86.0156 96.5038 86.1035 98.3202 87.4219 99.1698C88.0371 99.58 88.9746 99.6386 93.9844 99.5507C99.2578 99.4628 99.9024 99.4042 100.459 98.9061C101.279 98.1444 101.279 96.5917 100.43 95.8007C99.8438 95.244 99.4336 95.2147 93.75 95.2147C89.3848 95.2147 87.5684 95.3026 87.2168 95.5663Z" fill="#4D5CFF"/>
<path d="M104.941 95.8887C104.15 96.7384 104.121 97.8516 104.854 98.7598C105.352 99.3751 105.703 99.463 107.871 99.5509C110.01 99.6387 110.391 99.5801 111.123 99.0235C112.119 98.2325 112.207 96.6798 111.328 95.8009C110.83 95.3028 110.361 95.2149 108.164 95.2149C105.82 95.2149 105.498 95.2735 104.941 95.8887Z" fill="#4D5CFF"/>
<path d="M115.752 95.9767C114.99 96.9435 114.961 97.881 115.693 98.7599L116.25 99.463L124.248 99.5509C132.773 99.6388 133.564 99.5509 134.15 98.2618C134.619 97.1778 134.561 96.7384 133.74 95.9474L133.037 95.215H124.687H116.338L115.752 95.9767Z" fill="#4D5CFF"/>
<path d="M88.0079 119.15C86.4551 119.443 85.8106 121.582 86.8653 122.754C87.3633 123.311 87.7442 123.34 93.6622 123.34C99.5215 123.34 99.9317 123.311 100.488 122.754C101.66 121.582 101.104 119.736 99.375 119.238C98.3497 118.975 89.3555 118.887 88.0079 119.15Z" fill="#4D5CFF"/>
<path d="M105.967 119.238C104.326 119.766 103.77 121.494 104.883 122.695C105.41 123.252 105.791 123.34 108.047 123.34C111.211 123.34 111.914 122.959 111.914 121.318C111.914 119.707 111.211 119.18 108.779 119.062C107.666 119.004 106.406 119.092 105.967 119.238Z" fill="#4D5CFF"/>
<path d="M116.807 119.238C115.107 119.766 114.609 121.553 115.811 122.695C116.484 123.34 116.66 123.34 124.863 123.34H133.271L133.857 122.578C134.648 121.553 134.619 120.908 133.769 119.912L133.066 119.092L125.332 119.033C121.113 119.004 117.246 119.092 116.807 119.238Z" fill="#4D5CFF"/>
</svg>
