<svg width="1920" height="813" viewBox="0 0 1920 813" fill="none" xmlns="http://www.w3.org/2000/svg">
<path d="M34 302V16H126.4C155.733 16 181.467 22.1333 203.6 34.4C226 46.6667 243.467 63.6 256 85.2C268.533 106.533 274.8 131.067 274.8 158.8C274.8 186.533 268.533 211.2 256 232.8C243.467 254.4 226 271.333 203.6 283.6C181.467 295.867 155.733 302 126.4 302H34ZM64.8 274H126.4C150.133 274 170.667 269.2 188 259.6C205.6 250 219.067 236.533 228.4 219.2C238 201.867 242.8 181.733 242.8 158.8C242.8 135.867 238 115.867 228.4 98.8C219.067 81.4667 205.6 68 188 58.4C170.667 48.8 150.133 44 126.4 44H64.8V274ZM519.684 302H330.484V16H519.684V43.2H361.284V274.8H519.684V302ZM512.084 169.2H357.284V142H512.084V169.2ZM677.9 302H647.1V39.6H677.9V302ZM773.1 43.6H551.9V16H773.1V43.6ZM961.453 222H805.853V194.8H961.453V222ZM1015.85 302H983.453L877.453 34.4H891.053L785.053 302H753.853L868.253 16H901.453L1015.85 302ZM64.8 806H34V520H215.2V547.2H64.8V806ZM207.6 673.2H60.8V646H207.6V673.2ZM442.45 806H265.25V520H296.05V778.4H442.45V806ZM611.416 812.4C590.082 812.4 570.349 808.667 552.216 801.2C534.349 793.733 518.616 783.333 505.016 770C491.682 756.4 481.282 740.533 473.816 722.4C466.616 704 463.016 684.133 463.016 662.8C463.016 641.467 466.616 621.733 473.816 603.6C481.282 585.467 491.682 569.733 505.016 556.4C518.616 542.8 534.349 532.267 552.216 524.8C570.349 517.333 590.082 513.6 611.416 513.6C632.749 513.6 652.349 517.333 670.216 524.8C688.349 532.267 704.082 542.8 717.416 556.4C731.016 569.733 741.416 585.467 748.616 603.6C756.082 621.733 759.816 641.467 759.816 662.8C759.816 684.133 756.082 704 748.616 722.4C741.416 740.533 731.016 756.4 717.416 770C704.082 783.333 688.349 793.733 670.216 801.2C652.349 808.667 632.749 812.4 611.416 812.4ZM611.416 784.4C634.349 784.4 654.482 779.2 671.816 768.8C689.416 758.4 703.149 744 713.016 725.6C722.882 707.2 727.816 686.267 727.816 662.8C727.816 639.333 722.882 618.533 713.016 600.4C703.149 582 689.416 567.6 671.816 557.2C654.482 546.8 634.349 541.6 611.416 541.6C588.749 541.6 568.616 546.8 551.016 557.2C533.416 567.6 519.682 582 509.816 600.4C499.949 618.533 495.016 639.333 495.016 662.8C495.016 686.267 499.949 707.2 509.816 725.6C519.682 744 533.416 758.4 551.016 768.8C568.616 779.2 588.749 784.4 611.416 784.4ZM1086.73 806H1049.53L978.331 556H981.531L910.331 806H873.131L785.531 520H818.731L898.731 790H885.531L962.731 520H997.531L1074.73 790H1062.73L1142.73 520H1174.33L1086.73 806Z" fill="white" fill-opacity="0.06"/>
<rect x="1861" y="59" width="59" height="194" fill="#181818"/>
</svg>
